<svg width="757" height="472" viewBox="0 0 757 472" fill="none" xmlns="http://www.w3.org/2000/svg">
<g filter="url(#filter0_d_4_13)">
<rect x="12" y="8" width="733" height="448" rx="8" fill="white"/>
<rect x="12.5" y="8.5" width="732" height="447" rx="7.5" stroke="#E0E0E0"/>
<mask id="path-3-inside-1_4_13" fill="white">
<path d="M12 8H146V456H12V8Z"/>
</mask>
<path d="M12 8H146V456H12V8Z" fill="white"/>
<path d="M146 8H145V456H146H147V8H146Z" fill="#E0E0E0" mask="url(#path-3-inside-1_4_13)"/>
<mask id="path-5-inside-2_4_13" fill="white">
<path d="M146 8H281V456H146V8Z"/>
</mask>
<path d="M146 8H281V456H146V8Z" fill="white"/>
<path d="M281 8H280V456H281H282V8H281Z" fill="#E0E0E0" mask="url(#path-5-inside-2_4_13)"/>
<mask id="path-7-inside-3_4_13" fill="white">
<path d="M282 8H395V456H282V8Z"/>
</mask>
<path d="M282 8H395V456H282V8Z" fill="white"/>
<path d="M395 8H394V456H395H396V8H395Z" fill="#E0E0E0" mask="url(#path-7-inside-3_4_13)"/>
<mask id="path-9-inside-4_4_13" fill="white">
<path d="M395 8H519V456H395V8Z"/>
</mask>
<path d="M395 8H519V456H395V8Z" fill="white"/>
<path d="M519 8H518V456H519H520V8H519Z" fill="#E0E0E0" mask="url(#path-9-inside-4_4_13)"/>
<mask id="path-11-inside-5_4_13" fill="white">
<path d="M519 8H619V456H519V8Z"/>
</mask>
<path d="M519 8H619V456H519V8Z" fill="white"/>
<path d="M619 8H618V456H619H620V8H619Z" fill="#E0E0E0" mask="url(#path-11-inside-5_4_13)"/>
<circle opacity="0.1" cx="71" cy="344" r="24" fill="black"/>
<circle cx="71" cy="344" r="6" fill="black"/>
<circle cx="228" cy="344" r="6" fill="black"/>
<circle cx="274" cy="276" r="6" fill="black"/>
<circle cx="301" cy="176" r="6" fill="black"/>
<circle cx="368" cy="176" r="6" fill="black"/>
<circle cx="336" cy="121" r="6" fill="black"/>
<circle cx="475" cy="276" r="6" fill="black"/>
<circle cx="527" cy="121" r="6" fill="black"/>
<circle cx="493" cy="176" r="6" fill="black"/>
<circle cx="616" cy="344" r="6" fill="black"/>
<circle cx="578" cy="276" r="6" fill="black"/>
<circle cx="657" cy="276" r="6" fill="black"/>
<circle cx="689" cy="176" r="6" fill="black"/>
<circle cx="706" cy="123" r="6" fill="black"/>
<circle cx="389" cy="276" r="6" fill="black"/>
<circle cx="435" cy="344" r="6" fill="black"/>
<path d="M88 276C88 279.314 85.3137 282 82 282C78.6863 282 76 279.314 76 276C76 272.686 78.6863 270 82 270C85.3137 270 88 272.686 88 276Z" fill="black"/>
<path d="M196 276C196 279.314 193.314 282 190 282C186.686 282 184 279.314 184 276C184 272.686 186.686 270 190 270C193.314 270 196 272.686 196 276Z" fill="black"/>
<path d="M181 176C181 179.314 178.314 182 175 182C171.686 182 169 179.314 169 176C169 172.686 171.686 170 175 170C178.314 170 181 172.686 181 176Z" fill="black"/>
<path d="M154 121C154 124.314 151.314 127 148 127C144.686 127 142 124.314 142 121C142 117.686 144.686 115 148 115C151.314 115 154 117.686 154 121Z" fill="black"/>
<path d="M110 176C110 179.314 107.314 182 104 182C100.686 182 98 179.314 98 176C98 172.686 100.686 170 104 170C107.314 170 110 172.686 110 176Z" fill="black"/>
<path d="M71 343C76.7078 318 95.5 121 148.056 121C190 121 174.346 343 228 343C281.654 343 291.054 121 339 121C377.243 121 376.492 343 433 343C493.503 343 473.134 121 528.5 121C565.745 122.717 569.55 343 613.5 343C648.318 343 702.036 128.396 704 127.5" stroke="black" stroke-width="4" stroke-linecap="square"/>
<g filter="url(#filter1_d_4_13)">
<rect x="31" y="214" width="695" height="40" rx="8" fill="#F7F7F7" shape-rendering="crispEdges"/>
<path d="M50.017 240H47.3807L51.3977 228.364H54.5682L58.5795 240H55.9432L53.0284 231.023H52.9375L50.017 240ZM49.8523 235.426H56.0795V237.347H49.8523V235.426ZM60.5625 240L58.1875 231.273H60.6364L61.9886 237.136H62.0682L63.4773 231.273H65.8807L67.3125 237.102H67.3864L68.7159 231.273H71.1591L68.7898 240H66.2273L64.7273 234.511H64.6193L63.1193 240H60.5625ZM74.9389 240.165C74.3821 240.165 73.8859 240.068 73.4503 239.875C73.0147 239.678 72.67 239.388 72.4162 239.006C72.1662 238.619 72.0412 238.138 72.0412 237.562C72.0412 237.078 72.1302 236.67 72.3082 236.341C72.4863 236.011 72.7287 235.746 73.0355 235.545C73.3423 235.345 73.6908 235.193 74.081 235.091C74.4749 234.989 74.8878 234.917 75.3196 234.875C75.8272 234.822 76.2363 234.773 76.5469 234.727C76.8575 234.678 77.0829 234.606 77.223 234.511C77.3632 234.417 77.4332 234.277 77.4332 234.091V234.057C77.4332 233.697 77.3196 233.419 77.0923 233.222C76.8688 233.025 76.5507 232.926 76.1378 232.926C75.7022 232.926 75.3556 233.023 75.098 233.216C74.8404 233.405 74.67 233.644 74.5866 233.932L72.348 233.75C72.4616 233.22 72.6851 232.761 73.0185 232.375C73.3518 231.985 73.7817 231.686 74.3082 231.477C74.8385 231.265 75.4522 231.159 76.1491 231.159C76.634 231.159 77.098 231.216 77.5412 231.33C77.9882 231.443 78.384 231.619 78.7287 231.858C79.0772 232.097 79.3518 232.403 79.5526 232.778C79.7533 233.15 79.8537 233.595 79.8537 234.114V240H77.5582V238.79H77.4901C77.3499 239.062 77.1624 239.303 76.9276 239.511C76.6927 239.716 76.4105 239.877 76.081 239.994C75.7514 240.108 75.3707 240.165 74.9389 240.165ZM75.6321 238.494C75.9882 238.494 76.3026 238.424 76.5753 238.284C76.848 238.14 77.062 237.947 77.2173 237.705C77.3726 237.462 77.4503 237.187 77.4503 236.881V235.955C77.3745 236.004 77.2704 236.049 77.1378 236.091C77.009 236.129 76.8632 236.165 76.7003 236.199C76.5374 236.229 76.3745 236.258 76.2116 236.284C76.0488 236.307 75.901 236.328 75.7685 236.347C75.4844 236.388 75.2363 236.455 75.0241 236.545C74.812 236.636 74.6473 236.759 74.5298 236.915C74.4124 237.066 74.3537 237.256 74.3537 237.483C74.3537 237.812 74.473 238.064 74.7116 238.239C74.9541 238.409 75.2609 238.494 75.6321 238.494ZM81.7315 240V231.273H84.0781V232.795H84.169C84.3281 232.254 84.5952 231.845 84.9702 231.568C85.3452 231.288 85.777 231.148 86.2656 231.148C86.3868 231.148 86.5175 231.155 86.6577 231.17C86.7978 231.186 86.9209 231.206 87.027 231.233V233.381C86.9134 233.347 86.7562 233.316 86.5554 233.29C86.3546 233.263 86.1709 233.25 86.0043 233.25C85.6482 233.25 85.33 233.328 85.0497 233.483C84.7732 233.634 84.5535 233.847 84.3906 234.119C84.2315 234.392 84.152 234.706 84.152 235.062V240H81.7315ZM91.8494 240.17C90.9517 240.17 90.179 239.989 89.5312 239.625C88.8873 239.258 88.3911 238.739 88.0426 238.068C87.6941 237.394 87.5199 236.597 87.5199 235.676C87.5199 234.778 87.6941 233.991 88.0426 233.312C88.3911 232.634 88.8816 232.106 89.5142 231.727C90.1506 231.348 90.8968 231.159 91.7528 231.159C92.3286 231.159 92.8646 231.252 93.3608 231.438C93.8608 231.619 94.2964 231.894 94.6676 232.261C95.0426 232.629 95.3343 233.091 95.5426 233.648C95.7509 234.201 95.8551 234.848 95.8551 235.591V236.256H88.4858V234.756H93.5767C93.5767 234.407 93.5009 234.098 93.3494 233.83C93.1979 233.561 92.9877 233.35 92.7188 233.199C92.4536 233.044 92.1449 232.966 91.7926 232.966C91.4252 232.966 91.0994 233.051 90.8153 233.222C90.535 233.388 90.3153 233.614 90.1562 233.898C89.9972 234.178 89.9157 234.491 89.9119 234.835V236.261C89.9119 236.693 89.9915 237.066 90.1506 237.381C90.3134 237.695 90.5426 237.938 90.8381 238.108C91.1335 238.278 91.4839 238.364 91.8892 238.364C92.1581 238.364 92.4044 238.326 92.6278 238.25C92.8513 238.174 93.0426 238.061 93.2017 237.909C93.3608 237.758 93.482 237.572 93.5653 237.352L95.804 237.5C95.6903 238.038 95.4574 238.508 95.1051 238.909C94.7566 239.307 94.3059 239.617 93.7528 239.841C93.2036 240.061 92.5691 240.17 91.8494 240.17ZM99.8551 234.955V240H97.4347V231.273H99.7415V232.812H99.8438C100.037 232.305 100.361 231.903 100.815 231.608C101.27 231.309 101.821 231.159 102.469 231.159C103.075 231.159 103.603 231.292 104.054 231.557C104.505 231.822 104.855 232.201 105.105 232.693C105.355 233.182 105.48 233.765 105.48 234.443V240H103.06V234.875C103.063 234.341 102.927 233.924 102.651 233.625C102.374 233.322 101.993 233.17 101.509 233.17C101.183 233.17 100.895 233.241 100.645 233.381C100.399 233.521 100.205 233.725 100.065 233.994C99.929 234.259 99.8589 234.58 99.8551 234.955ZM111.365 240.17C110.467 240.17 109.695 239.989 109.047 239.625C108.403 239.258 107.907 238.739 107.558 238.068C107.21 237.394 107.036 236.597 107.036 235.676C107.036 234.778 107.21 233.991 107.558 233.312C107.907 232.634 108.397 232.106 109.03 231.727C109.666 231.348 110.412 231.159 111.268 231.159C111.844 231.159 112.38 231.252 112.876 231.438C113.376 231.619 113.812 231.894 114.183 232.261C114.558 232.629 114.85 233.091 115.058 233.648C115.267 234.201 115.371 234.848 115.371 235.591V236.256H108.001V234.756H113.092C113.092 234.407 113.017 234.098 112.865 233.83C112.714 233.561 112.503 233.35 112.234 233.199C111.969 233.044 111.661 232.966 111.308 232.966C110.941 232.966 110.615 233.051 110.331 233.222C110.051 233.388 109.831 233.614 109.672 233.898C109.513 234.178 109.431 234.491 109.428 234.835V236.261C109.428 236.693 109.507 237.066 109.666 237.381C109.829 237.695 110.058 237.938 110.354 238.108C110.649 238.278 111 238.364 111.405 238.364C111.674 238.364 111.92 238.326 112.143 238.25C112.367 238.174 112.558 238.061 112.717 237.909C112.876 237.758 112.998 237.572 113.081 237.352L115.32 237.5C115.206 238.038 114.973 238.508 114.621 238.909C114.272 239.307 113.821 239.617 113.268 239.841C112.719 240.061 112.085 240.17 111.365 240.17ZM124.212 233.761L121.996 233.898C121.958 233.708 121.876 233.538 121.751 233.386C121.626 233.231 121.462 233.108 121.257 233.017C121.056 232.922 120.816 232.875 120.536 232.875C120.161 232.875 119.844 232.955 119.587 233.114C119.329 233.269 119.2 233.477 119.2 233.739C119.2 233.947 119.284 234.123 119.45 234.267C119.617 234.411 119.903 234.527 120.308 234.614L121.888 234.932C122.736 235.106 123.369 235.386 123.786 235.773C124.202 236.159 124.411 236.667 124.411 237.295C124.411 237.867 124.242 238.369 123.905 238.801C123.571 239.233 123.113 239.57 122.53 239.812C121.95 240.051 121.282 240.17 120.524 240.17C119.369 240.17 118.448 239.93 117.763 239.449C117.081 238.964 116.681 238.305 116.564 237.472L118.945 237.347C119.017 237.699 119.191 237.968 119.467 238.153C119.744 238.335 120.098 238.426 120.53 238.426C120.954 238.426 121.295 238.345 121.553 238.182C121.814 238.015 121.946 237.801 121.95 237.54C121.946 237.32 121.854 237.14 121.672 237C121.49 236.856 121.21 236.746 120.831 236.67L119.32 236.369C118.467 236.199 117.833 235.903 117.416 235.483C117.003 235.062 116.797 234.527 116.797 233.875C116.797 233.314 116.948 232.831 117.251 232.426C117.558 232.021 117.988 231.708 118.541 231.489C119.098 231.269 119.75 231.159 120.496 231.159C121.598 231.159 122.465 231.392 123.098 231.858C123.734 232.324 124.106 232.958 124.212 233.761ZM133.196 233.761L130.98 233.898C130.942 233.708 130.861 233.538 130.736 233.386C130.611 233.231 130.446 233.108 130.241 233.017C130.041 232.922 129.8 232.875 129.52 232.875C129.145 232.875 128.829 232.955 128.571 233.114C128.313 233.269 128.185 233.477 128.185 233.739C128.185 233.947 128.268 234.123 128.435 234.267C128.601 234.411 128.887 234.527 129.293 234.614L130.872 234.932C131.721 235.106 132.353 235.386 132.77 235.773C133.187 236.159 133.395 236.667 133.395 237.295C133.395 237.867 133.226 238.369 132.889 238.801C132.556 239.233 132.098 239.57 131.514 239.812C130.935 240.051 130.266 240.17 129.509 240.17C128.353 240.17 127.433 239.93 126.747 239.449C126.065 238.964 125.666 238.305 125.548 237.472L127.929 237.347C128.001 237.699 128.175 237.968 128.452 238.153C128.728 238.335 129.082 238.426 129.514 238.426C129.938 238.426 130.279 238.345 130.537 238.182C130.798 238.015 130.931 237.801 130.935 237.54C130.931 237.32 130.838 237.14 130.656 237C130.474 236.856 130.194 236.746 129.815 236.67L128.304 236.369C127.452 236.199 126.817 235.903 126.401 235.483C125.988 235.062 125.781 234.527 125.781 233.875C125.781 233.314 125.933 232.831 126.236 232.426C126.543 232.021 126.973 231.708 127.526 231.489C128.082 231.269 128.734 231.159 129.48 231.159C130.582 231.159 131.45 231.392 132.082 231.858C132.719 232.324 133.09 232.958 133.196 233.761Z" fill="black"/>
<g filter="url(#filter2_d_4_13)">
<rect x="146" y="218" width="135" height="32" rx="4" fill="white" shape-rendering="crispEdges"/>
<path d="M169.278 232.438H166.79C166.744 232.116 166.652 231.83 166.511 231.58C166.371 231.326 166.191 231.11 165.972 230.932C165.752 230.754 165.498 230.617 165.21 230.523C164.926 230.428 164.617 230.381 164.284 230.381C163.682 230.381 163.157 230.53 162.71 230.83C162.263 231.125 161.917 231.557 161.67 232.125C161.424 232.689 161.301 233.375 161.301 234.182C161.301 235.011 161.424 235.708 161.67 236.273C161.92 236.837 162.269 237.263 162.716 237.551C163.163 237.839 163.68 237.983 164.267 237.983C164.597 237.983 164.902 237.939 165.182 237.852C165.466 237.765 165.718 237.638 165.938 237.472C166.157 237.301 166.339 237.095 166.483 236.852C166.631 236.61 166.733 236.333 166.79 236.023L169.278 236.034C169.214 236.568 169.053 237.083 168.795 237.58C168.542 238.072 168.199 238.513 167.767 238.903C167.339 239.29 166.828 239.597 166.233 239.824C165.642 240.047 164.973 240.159 164.227 240.159C163.189 240.159 162.261 239.924 161.443 239.455C160.629 238.985 159.985 238.305 159.511 237.415C159.042 236.525 158.807 235.447 158.807 234.182C158.807 232.913 159.045 231.833 159.523 230.943C160 230.053 160.648 229.375 161.466 228.909C162.284 228.439 163.205 228.205 164.227 228.205C164.902 228.205 165.527 228.299 166.102 228.489C166.682 228.678 167.195 228.955 167.642 229.318C168.089 229.678 168.453 230.119 168.733 230.642C169.017 231.165 169.199 231.763 169.278 232.438ZM174.94 240.17C174.058 240.17 173.295 239.983 172.651 239.608C172.01 239.229 171.516 238.703 171.168 238.028C170.819 237.35 170.645 236.564 170.645 235.67C170.645 234.769 170.819 233.981 171.168 233.307C171.516 232.629 172.01 232.102 172.651 231.727C173.295 231.348 174.058 231.159 174.94 231.159C175.823 231.159 176.584 231.348 177.224 231.727C177.868 232.102 178.365 232.629 178.713 233.307C179.062 233.981 179.236 234.769 179.236 235.67C179.236 236.564 179.062 237.35 178.713 238.028C178.365 238.703 177.868 239.229 177.224 239.608C176.584 239.983 175.823 240.17 174.94 240.17ZM174.952 238.295C175.353 238.295 175.688 238.182 175.957 237.955C176.226 237.723 176.429 237.409 176.565 237.011C176.705 236.614 176.776 236.161 176.776 235.653C176.776 235.146 176.705 234.693 176.565 234.295C176.429 233.898 176.226 233.583 175.957 233.352C175.688 233.121 175.353 233.006 174.952 233.006C174.546 233.006 174.205 233.121 173.929 233.352C173.656 233.583 173.45 233.898 173.31 234.295C173.173 234.693 173.105 235.146 173.105 235.653C173.105 236.161 173.173 236.614 173.31 237.011C173.45 237.409 173.656 237.723 173.929 237.955C174.205 238.182 174.546 238.295 174.952 238.295ZM183.23 234.955V240H180.81V231.273H183.116V232.812H183.219C183.412 232.305 183.736 231.903 184.19 231.608C184.645 231.309 185.196 231.159 185.844 231.159C186.45 231.159 186.978 231.292 187.429 231.557C187.88 231.822 188.23 232.201 188.48 232.693C188.73 233.182 188.855 233.765 188.855 234.443V240H186.435V234.875C186.438 234.341 186.302 233.924 186.026 233.625C185.749 233.322 185.368 233.17 184.884 233.17C184.558 233.17 184.27 233.241 184.02 233.381C183.774 233.521 183.58 233.725 183.44 233.994C183.304 234.259 183.234 234.58 183.23 234.955ZM198.024 233.761L195.808 233.898C195.77 233.708 195.689 233.538 195.564 233.386C195.439 233.231 195.274 233.108 195.07 233.017C194.869 232.922 194.628 232.875 194.348 232.875C193.973 232.875 193.657 232.955 193.399 233.114C193.142 233.269 193.013 233.477 193.013 233.739C193.013 233.947 193.096 234.123 193.263 234.267C193.429 234.411 193.715 234.527 194.121 234.614L195.7 234.932C196.549 235.106 197.181 235.386 197.598 235.773C198.015 236.159 198.223 236.667 198.223 237.295C198.223 237.867 198.054 238.369 197.717 238.801C197.384 239.233 196.926 239.57 196.342 239.812C195.763 240.051 195.094 240.17 194.337 240.17C193.181 240.17 192.261 239.93 191.575 239.449C190.893 238.964 190.494 238.305 190.376 237.472L192.757 237.347C192.829 237.699 193.003 237.968 193.28 238.153C193.556 238.335 193.911 238.426 194.342 238.426C194.767 238.426 195.107 238.345 195.365 238.182C195.626 238.015 195.759 237.801 195.763 237.54C195.759 237.32 195.666 237.14 195.484 237C195.303 236.856 195.022 236.746 194.643 236.67L193.132 236.369C192.28 236.199 191.645 235.903 191.229 235.483C190.816 235.062 190.609 234.527 190.609 233.875C190.609 233.314 190.761 232.831 191.064 232.426C191.371 232.021 191.801 231.708 192.354 231.489C192.911 231.269 193.562 231.159 194.308 231.159C195.411 231.159 196.278 231.392 196.911 231.858C197.547 232.324 197.918 232.958 198.024 233.761ZM199.747 240V231.273H202.168V240H199.747ZM200.963 230.148C200.603 230.148 200.295 230.028 200.037 229.79C199.783 229.547 199.656 229.258 199.656 228.92C199.656 228.587 199.783 228.301 200.037 228.062C200.295 227.82 200.603 227.699 200.963 227.699C201.323 227.699 201.63 227.82 201.884 228.062C202.141 228.301 202.27 228.587 202.27 228.92C202.27 229.258 202.141 229.547 201.884 229.79C201.63 230.028 201.323 230.148 200.963 230.148ZM207.322 240.142C206.66 240.142 206.059 239.972 205.521 239.631C204.987 239.286 204.563 238.78 204.249 238.114C203.938 237.443 203.783 236.621 203.783 235.648C203.783 234.648 203.944 233.816 204.266 233.153C204.588 232.487 205.016 231.989 205.55 231.659C206.088 231.326 206.677 231.159 207.317 231.159C207.805 231.159 208.213 231.242 208.538 231.409C208.868 231.572 209.133 231.777 209.334 232.023C209.538 232.265 209.694 232.504 209.8 232.739H209.874V228.364H212.288V240H209.902V238.602H209.8C209.686 238.845 209.525 239.085 209.317 239.324C209.112 239.559 208.845 239.754 208.516 239.909C208.19 240.064 207.792 240.142 207.322 240.142ZM208.089 238.216C208.48 238.216 208.809 238.11 209.078 237.898C209.351 237.682 209.559 237.381 209.703 236.994C209.851 236.608 209.925 236.155 209.925 235.636C209.925 235.117 209.853 234.667 209.709 234.284C209.565 233.902 209.357 233.606 209.084 233.398C208.811 233.189 208.48 233.085 208.089 233.085C207.692 233.085 207.357 233.193 207.084 233.409C206.811 233.625 206.605 233.924 206.464 234.307C206.324 234.689 206.254 235.133 206.254 235.636C206.254 236.144 206.324 236.593 206.464 236.983C206.608 237.369 206.815 237.672 207.084 237.892C207.357 238.108 207.692 238.216 208.089 238.216ZM218.256 240.17C217.358 240.17 216.585 239.989 215.938 239.625C215.294 239.258 214.797 238.739 214.449 238.068C214.1 237.394 213.926 236.597 213.926 235.676C213.926 234.778 214.1 233.991 214.449 233.312C214.797 232.634 215.288 232.106 215.92 231.727C216.557 231.348 217.303 231.159 218.159 231.159C218.735 231.159 219.271 231.252 219.767 231.438C220.267 231.619 220.703 231.894 221.074 232.261C221.449 232.629 221.741 233.091 221.949 233.648C222.157 234.201 222.261 234.848 222.261 235.591V236.256H214.892V234.756H219.983C219.983 234.407 219.907 234.098 219.756 233.83C219.604 233.561 219.394 233.35 219.125 233.199C218.86 233.044 218.551 232.966 218.199 232.966C217.831 232.966 217.506 233.051 217.222 233.222C216.941 233.388 216.722 233.614 216.562 233.898C216.403 234.178 216.322 234.491 216.318 234.835V236.261C216.318 236.693 216.398 237.066 216.557 237.381C216.72 237.695 216.949 237.938 217.244 238.108C217.54 238.278 217.89 238.364 218.295 238.364C218.564 238.364 218.811 238.326 219.034 238.25C219.258 238.174 219.449 238.061 219.608 237.909C219.767 237.758 219.888 237.572 219.972 237.352L222.21 237.5C222.097 238.038 221.864 238.508 221.511 238.909C221.163 239.307 220.712 239.617 220.159 239.841C219.61 240.061 218.975 240.17 218.256 240.17ZM223.841 240V231.273H226.188V232.795H226.278C226.438 232.254 226.705 231.845 227.08 231.568C227.455 231.288 227.886 231.148 228.375 231.148C228.496 231.148 228.627 231.155 228.767 231.17C228.907 231.186 229.03 231.206 229.136 231.233V233.381C229.023 233.347 228.866 233.316 228.665 233.29C228.464 233.263 228.28 233.25 228.114 233.25C227.758 233.25 227.439 233.328 227.159 233.483C226.883 233.634 226.663 233.847 226.5 234.119C226.341 234.392 226.261 234.706 226.261 235.062V240H223.841ZM232.626 240.165C232.07 240.165 231.573 240.068 231.138 239.875C230.702 239.678 230.357 239.388 230.104 239.006C229.854 238.619 229.729 238.138 229.729 237.562C229.729 237.078 229.818 236.67 229.996 236.341C230.174 236.011 230.416 235.746 230.723 235.545C231.03 235.345 231.378 235.193 231.768 235.091C232.162 234.989 232.575 234.917 233.007 234.875C233.515 234.822 233.924 234.773 234.234 234.727C234.545 234.678 234.77 234.606 234.911 234.511C235.051 234.417 235.121 234.277 235.121 234.091V234.057C235.121 233.697 235.007 233.419 234.78 233.222C234.556 233.025 234.238 232.926 233.825 232.926C233.39 232.926 233.043 233.023 232.786 233.216C232.528 233.405 232.357 233.644 232.274 233.932L230.036 233.75C230.149 233.22 230.373 232.761 230.706 232.375C231.039 231.985 231.469 231.686 231.996 231.477C232.526 231.265 233.14 231.159 233.837 231.159C234.321 231.159 234.786 231.216 235.229 231.33C235.676 231.443 236.071 231.619 236.416 231.858C236.765 232.097 237.039 232.403 237.24 232.778C237.441 233.15 237.541 233.595 237.541 234.114V240H235.246V238.79H235.178C235.037 239.062 234.85 239.303 234.615 239.511C234.38 239.716 234.098 239.877 233.768 239.994C233.439 240.108 233.058 240.165 232.626 240.165ZM233.32 238.494C233.676 238.494 233.99 238.424 234.263 238.284C234.536 238.14 234.75 237.947 234.905 237.705C235.06 237.462 235.138 237.187 235.138 236.881V235.955C235.062 236.004 234.958 236.049 234.825 236.091C234.696 236.129 234.551 236.165 234.388 236.199C234.225 236.229 234.062 236.258 233.899 236.284C233.736 236.307 233.589 236.328 233.456 236.347C233.172 236.388 232.924 236.455 232.712 236.545C232.5 236.636 232.335 236.759 232.217 236.915C232.1 237.066 232.041 237.256 232.041 237.483C232.041 237.812 232.161 238.064 232.399 238.239C232.642 238.409 232.948 238.494 233.32 238.494ZM244.061 231.273V233.091H238.805V231.273H244.061ZM239.999 229.182H242.419V237.318C242.419 237.542 242.453 237.716 242.521 237.841C242.589 237.962 242.684 238.047 242.805 238.097C242.93 238.146 243.074 238.17 243.237 238.17C243.351 238.17 243.464 238.161 243.578 238.142C243.692 238.119 243.779 238.102 243.839 238.091L244.22 239.892C244.099 239.93 243.929 239.973 243.709 240.023C243.489 240.076 243.222 240.108 242.908 240.119C242.324 240.142 241.813 240.064 241.374 239.886C240.938 239.708 240.599 239.432 240.357 239.057C240.114 238.682 239.995 238.208 239.999 237.636V229.182ZM245.638 240V231.273H248.058V240H245.638ZM246.854 230.148C246.494 230.148 246.185 230.028 245.928 229.79C245.674 229.547 245.547 229.258 245.547 228.92C245.547 228.587 245.674 228.301 245.928 228.062C246.185 227.82 246.494 227.699 246.854 227.699C247.214 227.699 247.52 227.82 247.774 228.062C248.032 228.301 248.161 228.587 248.161 228.92C248.161 229.258 248.032 229.547 247.774 229.79C247.52 230.028 247.214 230.148 246.854 230.148ZM253.94 240.17C253.058 240.17 252.295 239.983 251.651 239.608C251.01 239.229 250.516 238.703 250.168 238.028C249.819 237.35 249.645 236.564 249.645 235.67C249.645 234.769 249.819 233.981 250.168 233.307C250.516 232.629 251.01 232.102 251.651 231.727C252.295 231.348 253.058 231.159 253.94 231.159C254.823 231.159 255.584 231.348 256.224 231.727C256.868 232.102 257.365 232.629 257.713 233.307C258.062 233.981 258.236 234.769 258.236 235.67C258.236 236.564 258.062 237.35 257.713 238.028C257.365 238.703 256.868 239.229 256.224 239.608C255.584 239.983 254.823 240.17 253.94 240.17ZM253.952 238.295C254.353 238.295 254.688 238.182 254.957 237.955C255.226 237.723 255.429 237.409 255.565 237.011C255.705 236.614 255.776 236.161 255.776 235.653C255.776 235.146 255.705 234.693 255.565 234.295C255.429 233.898 255.226 233.583 254.957 233.352C254.688 233.121 254.353 233.006 253.952 233.006C253.546 233.006 253.205 233.121 252.929 233.352C252.656 233.583 252.45 233.898 252.31 234.295C252.173 234.693 252.105 235.146 252.105 235.653C252.105 236.161 252.173 236.614 252.31 237.011C252.45 237.409 252.656 237.723 252.929 237.955C253.205 238.182 253.546 238.295 253.952 238.295ZM262.23 234.955V240H259.81V231.273H262.116V232.812H262.219C262.412 232.305 262.736 231.903 263.19 231.608C263.645 231.309 264.196 231.159 264.844 231.159C265.45 231.159 265.978 231.292 266.429 231.557C266.88 231.822 267.23 232.201 267.48 232.693C267.73 233.182 267.855 233.765 267.855 234.443V240H265.435V234.875C265.438 234.341 265.302 233.924 265.026 233.625C264.749 233.322 264.368 233.17 263.884 233.17C263.558 233.17 263.27 233.241 263.02 233.381C262.774 233.521 262.58 233.725 262.44 233.994C262.304 234.259 262.234 234.58 262.23 234.955Z" fill="black"/>
</g>
<path d="M304.278 232.438H301.79C301.744 232.116 301.652 231.83 301.511 231.58C301.371 231.326 301.191 231.11 300.972 230.932C300.752 230.754 300.498 230.617 300.21 230.523C299.926 230.428 299.617 230.381 299.284 230.381C298.682 230.381 298.157 230.53 297.71 230.83C297.263 231.125 296.917 231.557 296.67 232.125C296.424 232.689 296.301 233.375 296.301 234.182C296.301 235.011 296.424 235.708 296.67 236.273C296.92 236.837 297.269 237.263 297.716 237.551C298.163 237.839 298.68 237.983 299.267 237.983C299.597 237.983 299.902 237.939 300.182 237.852C300.466 237.765 300.718 237.638 300.938 237.472C301.157 237.301 301.339 237.095 301.483 236.852C301.631 236.61 301.733 236.333 301.79 236.023L304.278 236.034C304.214 236.568 304.053 237.083 303.795 237.58C303.542 238.072 303.199 238.513 302.767 238.903C302.339 239.29 301.828 239.597 301.233 239.824C300.642 240.047 299.973 240.159 299.227 240.159C298.189 240.159 297.261 239.924 296.443 239.455C295.629 238.985 294.985 238.305 294.511 237.415C294.042 236.525 293.807 235.447 293.807 234.182C293.807 232.913 294.045 231.833 294.523 230.943C295 230.053 295.648 229.375 296.466 228.909C297.284 228.439 298.205 228.205 299.227 228.205C299.902 228.205 300.527 228.299 301.102 228.489C301.682 228.678 302.195 228.955 302.642 229.318C303.089 229.678 303.453 230.119 303.733 230.642C304.017 231.165 304.199 231.763 304.278 232.438ZM309.94 240.17C309.058 240.17 308.295 239.983 307.651 239.608C307.01 239.229 306.516 238.703 306.168 238.028C305.819 237.35 305.645 236.564 305.645 235.67C305.645 234.769 305.819 233.981 306.168 233.307C306.516 232.629 307.01 232.102 307.651 231.727C308.295 231.348 309.058 231.159 309.94 231.159C310.823 231.159 311.584 231.348 312.224 231.727C312.868 232.102 313.365 232.629 313.713 233.307C314.062 233.981 314.236 234.769 314.236 235.67C314.236 236.564 314.062 237.35 313.713 238.028C313.365 238.703 312.868 239.229 312.224 239.608C311.584 239.983 310.823 240.17 309.94 240.17ZM309.952 238.295C310.353 238.295 310.688 238.182 310.957 237.955C311.226 237.723 311.429 237.409 311.565 237.011C311.705 236.614 311.776 236.161 311.776 235.653C311.776 235.146 311.705 234.693 311.565 234.295C311.429 233.898 311.226 233.583 310.957 233.352C310.688 233.121 310.353 233.006 309.952 233.006C309.546 233.006 309.205 233.121 308.929 233.352C308.656 233.583 308.45 233.898 308.31 234.295C308.173 234.693 308.105 235.146 308.105 235.653C308.105 236.161 308.173 236.614 308.31 237.011C308.45 237.409 308.656 237.723 308.929 237.955C309.205 238.182 309.546 238.295 309.952 238.295ZM318.23 234.955V240H315.81V231.273H318.116V232.812H318.219C318.412 232.305 318.736 231.903 319.19 231.608C319.645 231.309 320.196 231.159 320.844 231.159C321.45 231.159 321.978 231.292 322.429 231.557C322.88 231.822 323.23 232.201 323.48 232.693C323.73 233.182 323.855 233.765 323.855 234.443V240H321.435V234.875C321.438 234.341 321.302 233.924 321.026 233.625C320.749 233.322 320.368 233.17 319.884 233.17C319.558 233.17 319.27 233.241 319.02 233.381C318.774 233.521 318.58 233.725 318.44 233.994C318.304 234.259 318.234 234.58 318.23 234.955ZM333.587 231.273L330.536 240H327.808L324.757 231.273H327.314L329.126 237.517H329.217L331.024 231.273H333.587ZM338.521 240.17C337.624 240.17 336.851 239.989 336.203 239.625C335.559 239.258 335.063 238.739 334.714 238.068C334.366 237.394 334.192 236.597 334.192 235.676C334.192 234.778 334.366 233.991 334.714 233.312C335.063 232.634 335.554 232.106 336.186 231.727C336.822 231.348 337.569 231.159 338.425 231.159C339 231.159 339.536 231.252 340.033 231.438C340.533 231.619 340.968 231.894 341.339 232.261C341.714 232.629 342.006 233.091 342.214 233.648C342.423 234.201 342.527 234.848 342.527 235.591V236.256H335.158V234.756H340.249C340.249 234.407 340.173 234.098 340.021 233.83C339.87 233.561 339.66 233.35 339.391 233.199C339.125 233.044 338.817 232.966 338.464 232.966C338.097 232.966 337.771 233.051 337.487 233.222C337.207 233.388 336.987 233.614 336.828 233.898C336.669 234.178 336.588 234.491 336.584 234.835V236.261C336.584 236.693 336.663 237.066 336.822 237.381C336.985 237.695 337.214 237.938 337.51 238.108C337.805 238.278 338.156 238.364 338.561 238.364C338.83 238.364 339.076 238.326 339.3 238.25C339.523 238.174 339.714 238.061 339.874 237.909C340.033 237.758 340.154 237.572 340.237 237.352L342.476 237.5C342.362 238.038 342.129 238.508 341.777 238.909C341.429 239.307 340.978 239.617 340.425 239.841C339.875 240.061 339.241 240.17 338.521 240.17ZM344.107 240V231.273H346.453V232.795H346.544C346.703 232.254 346.97 231.845 347.345 231.568C347.72 231.288 348.152 231.148 348.641 231.148C348.762 231.148 348.893 231.155 349.033 231.17C349.173 231.186 349.296 231.206 349.402 231.233V233.381C349.288 233.347 349.131 233.316 348.93 233.29C348.73 233.263 348.546 233.25 348.379 233.25C348.023 233.25 347.705 233.328 347.425 233.483C347.148 233.634 346.929 233.847 346.766 234.119C346.607 234.392 346.527 234.706 346.527 235.062V240H344.107ZM357.915 233.761L355.699 233.898C355.661 233.708 355.58 233.538 355.455 233.386C355.33 233.231 355.165 233.108 354.96 233.017C354.759 232.922 354.519 232.875 354.239 232.875C353.864 232.875 353.547 232.955 353.29 233.114C353.032 233.269 352.903 233.477 352.903 233.739C352.903 233.947 352.987 234.123 353.153 234.267C353.32 234.411 353.606 234.527 354.011 234.614L355.591 234.932C356.439 235.106 357.072 235.386 357.489 235.773C357.905 236.159 358.114 236.667 358.114 237.295C358.114 237.867 357.945 238.369 357.608 238.801C357.275 239.233 356.816 239.57 356.233 239.812C355.653 240.051 354.985 240.17 354.227 240.17C353.072 240.17 352.152 239.93 351.466 239.449C350.784 238.964 350.384 238.305 350.267 237.472L352.648 237.347C352.72 237.699 352.894 237.968 353.17 238.153C353.447 238.335 353.801 238.426 354.233 238.426C354.657 238.426 354.998 238.345 355.256 238.182C355.517 238.015 355.65 237.801 355.653 237.54C355.65 237.32 355.557 237.14 355.375 237C355.193 236.856 354.913 236.746 354.534 236.67L353.023 236.369C352.17 236.199 351.536 235.903 351.119 235.483C350.706 235.062 350.5 234.527 350.5 233.875C350.5 233.314 350.652 232.831 350.955 232.426C351.261 232.021 351.691 231.708 352.244 231.489C352.801 231.269 353.453 231.159 354.199 231.159C355.301 231.159 356.169 231.392 356.801 231.858C357.438 232.324 357.809 232.958 357.915 233.761ZM359.638 240V231.273H362.058V240H359.638ZM360.854 230.148C360.494 230.148 360.185 230.028 359.928 229.79C359.674 229.547 359.547 229.258 359.547 228.92C359.547 228.587 359.674 228.301 359.928 228.062C360.185 227.82 360.494 227.699 360.854 227.699C361.214 227.699 361.52 227.82 361.774 228.062C362.032 228.301 362.161 228.587 362.161 228.92C362.161 229.258 362.032 229.547 361.774 229.79C361.52 230.028 361.214 230.148 360.854 230.148ZM367.94 240.17C367.058 240.17 366.295 239.983 365.651 239.608C365.01 239.229 364.516 238.703 364.168 238.028C363.819 237.35 363.645 236.564 363.645 235.67C363.645 234.769 363.819 233.981 364.168 233.307C364.516 232.629 365.01 232.102 365.651 231.727C366.295 231.348 367.058 231.159 367.94 231.159C368.823 231.159 369.584 231.348 370.224 231.727C370.868 232.102 371.365 232.629 371.713 233.307C372.062 233.981 372.236 234.769 372.236 235.67C372.236 236.564 372.062 237.35 371.713 238.028C371.365 238.703 370.868 239.229 370.224 239.608C369.584 239.983 368.823 240.17 367.94 240.17ZM367.952 238.295C368.353 238.295 368.688 238.182 368.957 237.955C369.226 237.723 369.429 237.409 369.565 237.011C369.705 236.614 369.776 236.161 369.776 235.653C369.776 235.146 369.705 234.693 369.565 234.295C369.429 233.898 369.226 233.583 368.957 233.352C368.688 233.121 368.353 233.006 367.952 233.006C367.546 233.006 367.205 233.121 366.929 233.352C366.656 233.583 366.45 233.898 366.31 234.295C366.173 234.693 366.105 235.146 366.105 235.653C366.105 236.161 366.173 236.614 366.31 237.011C366.45 237.409 366.656 237.723 366.929 237.955C367.205 238.182 367.546 238.295 367.952 238.295ZM376.23 234.955V240H373.81V231.273H376.116V232.812H376.219C376.412 232.305 376.736 231.903 377.19 231.608C377.645 231.309 378.196 231.159 378.844 231.159C379.45 231.159 379.978 231.292 380.429 231.557C380.88 231.822 381.23 232.201 381.48 232.693C381.73 233.182 381.855 233.765 381.855 234.443V240H379.435V234.875C379.438 234.341 379.302 233.924 379.026 233.625C378.749 233.322 378.368 233.17 377.884 233.17C377.558 233.17 377.27 233.241 377.02 233.381C376.774 233.521 376.58 233.725 376.44 233.994C376.304 234.259 376.234 234.58 376.23 234.955Z" fill="black"/>
<g filter="url(#filter3_d_4_13)">
<rect x="395" y="218" width="124" height="32" rx="4" fill="white" shape-rendering="crispEdges"/>
<path d="M408.011 240V228.364H415.852V230.392H410.472V233.165H415.449V235.193H410.472V237.972H415.875V240H408.011ZM420.183 234.955V240H417.763V231.273H420.07V232.812H420.172C420.365 232.305 420.689 231.903 421.143 231.608C421.598 231.309 422.149 231.159 422.797 231.159C423.403 231.159 423.931 231.292 424.382 231.557C424.833 231.822 425.183 232.201 425.433 232.693C425.683 233.182 425.808 233.765 425.808 234.443V240H423.388V234.875C423.392 234.341 423.255 233.924 422.979 233.625C422.702 233.322 422.321 233.17 421.837 233.17C421.511 233.17 421.223 233.241 420.973 233.381C420.727 233.521 420.534 233.725 420.393 233.994C420.257 234.259 420.187 234.58 420.183 234.955ZM431.648 243.455C430.864 243.455 430.191 243.347 429.631 243.131C429.074 242.919 428.631 242.629 428.301 242.261C427.972 241.894 427.758 241.481 427.659 241.023L429.898 240.722C429.966 240.896 430.074 241.059 430.222 241.21C430.369 241.362 430.564 241.483 430.807 241.574C431.053 241.669 431.352 241.716 431.705 241.716C432.231 241.716 432.665 241.587 433.006 241.33C433.35 241.076 433.523 240.65 433.523 240.051V238.455H433.42C433.314 238.697 433.155 238.926 432.943 239.142C432.731 239.358 432.458 239.534 432.125 239.67C431.792 239.807 431.394 239.875 430.932 239.875C430.277 239.875 429.68 239.723 429.142 239.42C428.608 239.114 428.182 238.646 427.864 238.017C427.549 237.384 427.392 236.585 427.392 235.619C427.392 234.631 427.553 233.805 427.875 233.142C428.197 232.479 428.625 231.983 429.159 231.653C429.697 231.324 430.286 231.159 430.926 231.159C431.415 231.159 431.824 231.242 432.153 231.409C432.483 231.572 432.748 231.777 432.949 232.023C433.153 232.265 433.311 232.504 433.42 232.739H433.511V231.273H435.915V240.085C435.915 240.828 435.733 241.449 435.369 241.949C435.006 242.449 434.502 242.824 433.858 243.074C433.218 243.328 432.481 243.455 431.648 243.455ZM431.699 238.057C432.089 238.057 432.419 237.96 432.688 237.767C432.96 237.57 433.169 237.29 433.312 236.926C433.46 236.559 433.534 236.119 433.534 235.608C433.534 235.097 433.462 234.653 433.318 234.278C433.174 233.9 432.966 233.606 432.693 233.398C432.42 233.189 432.089 233.085 431.699 233.085C431.301 233.085 430.966 233.193 430.693 233.409C430.42 233.621 430.214 233.917 430.074 234.295C429.934 234.674 429.864 235.112 429.864 235.608C429.864 236.112 429.934 236.547 430.074 236.915C430.218 237.278 430.424 237.561 430.693 237.761C430.966 237.958 431.301 238.057 431.699 238.057ZM440.33 240.165C439.773 240.165 439.277 240.068 438.841 239.875C438.405 239.678 438.061 239.388 437.807 239.006C437.557 238.619 437.432 238.138 437.432 237.562C437.432 237.078 437.521 236.67 437.699 236.341C437.877 236.011 438.119 235.746 438.426 235.545C438.733 235.345 439.081 235.193 439.472 235.091C439.866 234.989 440.278 234.917 440.71 234.875C441.218 234.822 441.627 234.773 441.938 234.727C442.248 234.678 442.473 234.606 442.614 234.511C442.754 234.417 442.824 234.277 442.824 234.091V234.057C442.824 233.697 442.71 233.419 442.483 233.222C442.259 233.025 441.941 232.926 441.528 232.926C441.093 232.926 440.746 233.023 440.489 233.216C440.231 233.405 440.061 233.644 439.977 233.932L437.739 233.75C437.852 233.22 438.076 232.761 438.409 232.375C438.742 231.985 439.172 231.686 439.699 231.477C440.229 231.265 440.843 231.159 441.54 231.159C442.025 231.159 442.489 231.216 442.932 231.33C443.379 231.443 443.775 231.619 444.119 231.858C444.468 232.097 444.742 232.403 444.943 232.778C445.144 233.15 445.244 233.595 445.244 234.114V240H442.949V238.79H442.881C442.741 239.062 442.553 239.303 442.318 239.511C442.083 239.716 441.801 239.877 441.472 239.994C441.142 240.108 440.761 240.165 440.33 240.165ZM441.023 238.494C441.379 238.494 441.693 238.424 441.966 238.284C442.239 238.14 442.453 237.947 442.608 237.705C442.763 237.462 442.841 237.187 442.841 236.881V235.955C442.765 236.004 442.661 236.049 442.528 236.091C442.4 236.129 442.254 236.165 442.091 236.199C441.928 236.229 441.765 236.258 441.602 236.284C441.439 236.307 441.292 236.328 441.159 236.347C440.875 236.388 440.627 236.455 440.415 236.545C440.203 236.636 440.038 236.759 439.92 236.915C439.803 237.066 439.744 237.256 439.744 237.483C439.744 237.812 439.864 238.064 440.102 238.239C440.345 238.409 440.652 238.494 441.023 238.494ZM451.054 243.455C450.27 243.455 449.598 243.347 449.037 243.131C448.48 242.919 448.037 242.629 447.707 242.261C447.378 241.894 447.164 241.481 447.065 241.023L449.304 240.722C449.372 240.896 449.48 241.059 449.628 241.21C449.776 241.362 449.971 241.483 450.213 241.574C450.459 241.669 450.759 241.716 451.111 241.716C451.637 241.716 452.071 241.587 452.412 241.33C452.757 241.076 452.929 240.65 452.929 240.051V238.455H452.827C452.721 238.697 452.562 238.926 452.349 239.142C452.137 239.358 451.865 239.534 451.531 239.67C451.198 239.807 450.8 239.875 450.338 239.875C449.683 239.875 449.086 239.723 448.548 239.42C448.014 239.114 447.588 238.646 447.27 238.017C446.955 237.384 446.798 236.585 446.798 235.619C446.798 234.631 446.959 233.805 447.281 233.142C447.603 232.479 448.031 231.983 448.565 231.653C449.103 231.324 449.692 231.159 450.332 231.159C450.821 231.159 451.23 231.242 451.56 231.409C451.889 231.572 452.154 231.777 452.355 232.023C452.56 232.265 452.717 232.504 452.827 232.739H452.918V231.273H455.321V240.085C455.321 240.828 455.139 241.449 454.776 241.949C454.412 242.449 453.908 242.824 453.264 243.074C452.624 243.328 451.887 243.455 451.054 243.455ZM451.105 238.057C451.495 238.057 451.825 237.96 452.094 237.767C452.366 237.57 452.575 237.29 452.719 236.926C452.866 236.559 452.94 236.119 452.94 235.608C452.94 235.097 452.868 234.653 452.724 234.278C452.58 233.9 452.372 233.606 452.099 233.398C451.827 233.189 451.495 233.085 451.105 233.085C450.707 233.085 450.372 233.193 450.099 233.409C449.827 233.621 449.62 233.917 449.48 234.295C449.34 234.674 449.27 235.112 449.27 235.608C449.27 236.112 449.34 236.547 449.48 236.915C449.624 237.278 449.83 237.561 450.099 237.761C450.372 237.958 450.707 238.057 451.105 238.057ZM461.224 240.17C460.327 240.17 459.554 239.989 458.906 239.625C458.262 239.258 457.766 238.739 457.418 238.068C457.069 237.394 456.895 236.597 456.895 235.676C456.895 234.778 457.069 233.991 457.418 233.312C457.766 232.634 458.257 232.106 458.889 231.727C459.526 231.348 460.272 231.159 461.128 231.159C461.704 231.159 462.24 231.252 462.736 231.438C463.236 231.619 463.671 231.894 464.043 232.261C464.418 232.629 464.709 233.091 464.918 233.648C465.126 234.201 465.23 234.848 465.23 235.591V236.256H457.861V234.756H462.952C462.952 234.407 462.876 234.098 462.724 233.83C462.573 233.561 462.363 233.35 462.094 233.199C461.829 233.044 461.52 232.966 461.168 232.966C460.8 232.966 460.474 233.051 460.19 233.222C459.91 233.388 459.69 233.614 459.531 233.898C459.372 234.178 459.291 234.491 459.287 234.835V236.261C459.287 236.693 459.366 237.066 459.526 237.381C459.688 237.695 459.918 237.938 460.213 238.108C460.509 238.278 460.859 238.364 461.264 238.364C461.533 238.364 461.779 238.326 462.003 238.25C462.226 238.174 462.418 238.061 462.577 237.909C462.736 237.758 462.857 237.572 462.94 237.352L465.179 237.5C465.065 238.038 464.832 238.508 464.48 238.909C464.132 239.307 463.681 239.617 463.128 239.841C462.579 240.061 461.944 240.17 461.224 240.17ZM466.81 240V231.273H469.116V232.812H469.219C469.401 232.301 469.704 231.898 470.128 231.602C470.552 231.307 471.06 231.159 471.651 231.159C472.249 231.159 472.759 231.309 473.179 231.608C473.599 231.903 473.88 232.305 474.02 232.812H474.111C474.289 232.312 474.611 231.913 475.077 231.614C475.546 231.311 476.101 231.159 476.741 231.159C477.556 231.159 478.217 231.419 478.724 231.938C479.236 232.453 479.491 233.184 479.491 234.131V240H477.077V234.608C477.077 234.123 476.948 233.759 476.69 233.517C476.433 233.275 476.111 233.153 475.724 233.153C475.285 233.153 474.942 233.294 474.696 233.574C474.45 233.85 474.327 234.216 474.327 234.67V240H471.98V234.557C471.98 234.129 471.857 233.788 471.611 233.534C471.368 233.28 471.048 233.153 470.651 233.153C470.382 233.153 470.139 233.222 469.923 233.358C469.711 233.491 469.543 233.678 469.418 233.92C469.293 234.159 469.23 234.439 469.23 234.761V240H466.81ZM485.381 240.17C484.483 240.17 483.71 239.989 483.062 239.625C482.419 239.258 481.922 238.739 481.574 238.068C481.225 237.394 481.051 236.597 481.051 235.676C481.051 234.778 481.225 233.991 481.574 233.312C481.922 232.634 482.413 232.106 483.045 231.727C483.682 231.348 484.428 231.159 485.284 231.159C485.86 231.159 486.396 231.252 486.892 231.438C487.392 231.619 487.828 231.894 488.199 232.261C488.574 232.629 488.866 233.091 489.074 233.648C489.282 234.201 489.386 234.848 489.386 235.591V236.256H482.017V234.756H487.108C487.108 234.407 487.032 234.098 486.881 233.83C486.729 233.561 486.519 233.35 486.25 233.199C485.985 233.044 485.676 232.966 485.324 232.966C484.956 232.966 484.631 233.051 484.347 233.222C484.066 233.388 483.847 233.614 483.688 233.898C483.528 234.178 483.447 234.491 483.443 234.835V236.261C483.443 236.693 483.523 237.066 483.682 237.381C483.845 237.695 484.074 237.938 484.369 238.108C484.665 238.278 485.015 238.364 485.42 238.364C485.689 238.364 485.936 238.326 486.159 238.25C486.383 238.174 486.574 238.061 486.733 237.909C486.892 237.758 487.013 237.572 487.097 237.352L489.335 237.5C489.222 238.038 488.989 238.508 488.636 238.909C488.288 239.307 487.837 239.617 487.284 239.841C486.735 240.061 486.1 240.17 485.381 240.17ZM493.386 234.955V240H490.966V231.273H493.273V232.812H493.375C493.568 232.305 493.892 231.903 494.347 231.608C494.801 231.309 495.352 231.159 496 231.159C496.606 231.159 497.134 231.292 497.585 231.557C498.036 231.822 498.386 232.201 498.636 232.693C498.886 233.182 499.011 233.765 499.011 234.443V240H496.591V234.875C496.595 234.341 496.458 233.924 496.182 233.625C495.905 233.322 495.525 233.17 495.04 233.17C494.714 233.17 494.426 233.241 494.176 233.381C493.93 233.521 493.737 233.725 493.597 233.994C493.46 234.259 493.39 234.58 493.386 234.955ZM505.561 231.273V233.091H500.305V231.273H505.561ZM501.499 229.182H503.919V237.318C503.919 237.542 503.953 237.716 504.021 237.841C504.089 237.962 504.184 238.047 504.305 238.097C504.43 238.146 504.574 238.17 504.737 238.17C504.851 238.17 504.964 238.161 505.078 238.142C505.192 238.119 505.279 238.102 505.339 238.091L505.72 239.892C505.599 239.93 505.429 239.973 505.209 240.023C504.989 240.076 504.722 240.108 504.408 240.119C503.824 240.142 503.313 240.064 502.874 239.886C502.438 239.708 502.099 239.432 501.857 239.057C501.614 238.682 501.495 238.208 501.499 237.636V229.182Z" fill="black"/>
</g>
<path d="M532.011 240V228.364H536.602C537.481 228.364 538.231 228.521 538.852 228.835C539.477 229.146 539.953 229.587 540.278 230.159C540.608 230.727 540.773 231.396 540.773 232.165C540.773 232.937 540.606 233.602 540.273 234.159C539.939 234.712 539.456 235.136 538.824 235.432C538.195 235.727 537.434 235.875 536.54 235.875H533.466V233.898H536.142C536.612 233.898 537.002 233.833 537.312 233.705C537.623 233.576 537.854 233.383 538.006 233.125C538.161 232.867 538.239 232.547 538.239 232.165C538.239 231.778 538.161 231.453 538.006 231.188C537.854 230.922 537.621 230.722 537.307 230.585C536.996 230.445 536.604 230.375 536.131 230.375H534.472V240H532.011ZM538.295 234.705L541.188 240H538.472L535.642 234.705H538.295ZM546.303 240.17C545.405 240.17 544.632 239.989 543.984 239.625C543.34 239.258 542.844 238.739 542.496 238.068C542.147 237.394 541.973 236.597 541.973 235.676C541.973 234.778 542.147 233.991 542.496 233.312C542.844 232.634 543.335 232.106 543.967 231.727C544.604 231.348 545.35 231.159 546.206 231.159C546.782 231.159 547.318 231.252 547.814 231.438C548.314 231.619 548.75 231.894 549.121 232.261C549.496 232.629 549.787 233.091 549.996 233.648C550.204 234.201 550.308 234.848 550.308 235.591V236.256H542.939V234.756H548.03C548.03 234.407 547.954 234.098 547.803 233.83C547.651 233.561 547.441 233.35 547.172 233.199C546.907 233.044 546.598 232.966 546.246 232.966C545.878 232.966 545.553 233.051 545.268 233.222C544.988 233.388 544.768 233.614 544.609 233.898C544.45 234.178 544.369 234.491 544.365 234.835V236.261C544.365 236.693 544.445 237.066 544.604 237.381C544.767 237.695 544.996 237.938 545.291 238.108C545.587 238.278 545.937 238.364 546.342 238.364C546.611 238.364 546.857 238.326 547.081 238.25C547.304 238.174 547.496 238.061 547.655 237.909C547.814 237.758 547.935 237.572 548.018 237.352L550.257 237.5C550.143 238.038 549.911 238.508 549.558 238.909C549.21 239.307 548.759 239.617 548.206 239.841C547.657 240.061 547.022 240.17 546.303 240.17ZM556.53 231.273V233.091H551.274V231.273H556.53ZM552.467 229.182H554.888V237.318C554.888 237.542 554.922 237.716 554.99 237.841C555.058 237.962 555.153 238.047 555.274 238.097C555.399 238.146 555.543 238.17 555.706 238.17C555.82 238.17 555.933 238.161 556.047 238.142C556.161 238.119 556.248 238.102 556.308 238.091L556.689 239.892C556.568 239.93 556.397 239.973 556.178 240.023C555.958 240.076 555.691 240.108 555.376 240.119C554.793 240.142 554.282 240.064 553.842 239.886C553.407 239.708 553.068 239.432 552.825 239.057C552.583 238.682 552.464 238.208 552.467 237.636V229.182ZM561.99 240.17C561.092 240.17 560.32 239.989 559.672 239.625C559.028 239.258 558.532 238.739 558.183 238.068C557.835 237.394 557.661 236.597 557.661 235.676C557.661 234.778 557.835 233.991 558.183 233.312C558.532 232.634 559.022 232.106 559.655 231.727C560.291 231.348 561.037 231.159 561.893 231.159C562.469 231.159 563.005 231.252 563.501 231.438C564.001 231.619 564.437 231.894 564.808 232.261C565.183 232.629 565.475 233.091 565.683 233.648C565.892 234.201 565.996 234.848 565.996 235.591V236.256H558.626V234.756H563.717C563.717 234.407 563.642 234.098 563.49 233.83C563.339 233.561 563.128 233.35 562.859 233.199C562.594 233.044 562.286 232.966 561.933 232.966C561.566 232.966 561.24 233.051 560.956 233.222C560.676 233.388 560.456 233.614 560.297 233.898C560.138 234.178 560.056 234.491 560.053 234.835V236.261C560.053 236.693 560.132 237.066 560.291 237.381C560.454 237.695 560.683 237.938 560.979 238.108C561.274 238.278 561.625 238.364 562.03 238.364C562.299 238.364 562.545 238.326 562.768 238.25C562.992 238.174 563.183 238.061 563.342 237.909C563.501 237.758 563.623 237.572 563.706 237.352L565.945 237.5C565.831 238.038 565.598 238.508 565.246 238.909C564.897 239.307 564.446 239.617 563.893 239.841C563.344 240.061 562.71 240.17 561.99 240.17ZM569.996 234.955V240H567.575V231.273H569.882V232.812H569.984C570.178 232.305 570.501 231.903 570.956 231.608C571.411 231.309 571.962 231.159 572.609 231.159C573.215 231.159 573.744 231.292 574.195 231.557C574.645 231.822 574.996 232.201 575.246 232.693C575.496 233.182 575.621 233.765 575.621 234.443V240H573.2V234.875C573.204 234.341 573.068 233.924 572.791 233.625C572.515 233.322 572.134 233.17 571.649 233.17C571.323 233.17 571.036 233.241 570.786 233.381C570.539 233.521 570.346 233.725 570.206 233.994C570.07 234.259 570 234.58 569.996 234.955ZM582.17 231.273V233.091H576.915V231.273H582.17ZM578.108 229.182H580.528V237.318C580.528 237.542 580.563 237.716 580.631 237.841C580.699 237.962 580.794 238.047 580.915 238.097C581.04 238.146 581.184 238.17 581.347 238.17C581.46 238.17 581.574 238.161 581.688 238.142C581.801 238.119 581.888 238.102 581.949 238.091L582.33 239.892C582.208 239.93 582.038 239.973 581.818 240.023C581.598 240.076 581.331 240.108 581.017 240.119C580.434 240.142 579.922 240.064 579.483 239.886C579.047 239.708 578.708 239.432 578.466 239.057C578.223 238.682 578.104 238.208 578.108 237.636V229.182ZM583.747 240V231.273H586.168V240H583.747ZM584.963 230.148C584.603 230.148 584.295 230.028 584.037 229.79C583.783 229.547 583.656 229.258 583.656 228.92C583.656 228.587 583.783 228.301 584.037 228.062C584.295 227.82 584.603 227.699 584.963 227.699C585.323 227.699 585.63 227.82 585.884 228.062C586.141 228.301 586.27 228.587 586.27 228.92C586.27 229.258 586.141 229.547 585.884 229.79C585.63 230.028 585.323 230.148 584.963 230.148ZM592.05 240.17C591.167 240.17 590.404 239.983 589.76 239.608C589.12 239.229 588.625 238.703 588.277 238.028C587.929 237.35 587.754 236.564 587.754 235.67C587.754 234.769 587.929 233.981 588.277 233.307C588.625 232.629 589.12 232.102 589.76 231.727C590.404 231.348 591.167 231.159 592.05 231.159C592.932 231.159 593.694 231.348 594.334 231.727C594.978 232.102 595.474 232.629 595.822 233.307C596.171 233.981 596.345 234.769 596.345 235.67C596.345 236.564 596.171 237.35 595.822 238.028C595.474 238.703 594.978 239.229 594.334 239.608C593.694 239.983 592.932 240.17 592.05 240.17ZM592.061 238.295C592.463 238.295 592.798 238.182 593.067 237.955C593.336 237.723 593.538 237.409 593.675 237.011C593.815 236.614 593.885 236.161 593.885 235.653C593.885 235.146 593.815 234.693 593.675 234.295C593.538 233.898 593.336 233.583 593.067 233.352C592.798 233.121 592.463 233.006 592.061 233.006C591.656 233.006 591.315 233.121 591.038 233.352C590.766 233.583 590.559 233.898 590.419 234.295C590.283 234.693 590.214 235.146 590.214 235.653C590.214 236.161 590.283 236.614 590.419 237.011C590.559 237.409 590.766 237.723 591.038 237.955C591.315 238.182 591.656 238.295 592.061 238.295ZM600.339 234.955V240H597.919V231.273H600.226V232.812H600.328C600.521 232.305 600.845 231.903 601.3 231.608C601.754 231.309 602.305 231.159 602.953 231.159C603.559 231.159 604.088 231.292 604.538 231.557C604.989 231.822 605.339 232.201 605.589 232.693C605.839 233.182 605.964 233.765 605.964 234.443V240H603.544V234.875C603.548 234.341 603.411 233.924 603.135 233.625C602.858 233.322 602.478 233.17 601.993 233.17C601.667 233.17 601.379 233.241 601.129 233.381C600.883 233.521 600.69 233.725 600.55 233.994C600.413 234.259 600.343 234.58 600.339 234.955Z" fill="black"/>
<g filter="url(#filter4_d_4_13)">
<rect x="619" y="218" width="103" height="32" rx="4" fill="white" shape-rendering="crispEdges"/>
<path d="M634.017 240H631.381L635.398 228.364H638.568L642.58 240H639.943L637.028 231.023H636.938L634.017 240ZM633.852 235.426H640.08V237.347H633.852V235.426ZM646.744 240.142C646.081 240.142 645.481 239.972 644.943 239.631C644.409 239.286 643.985 238.78 643.67 238.114C643.36 237.443 643.205 236.621 643.205 235.648C643.205 234.648 643.366 233.816 643.688 233.153C644.009 232.487 644.438 231.989 644.972 231.659C645.509 231.326 646.098 231.159 646.739 231.159C647.227 231.159 647.634 231.242 647.96 231.409C648.29 231.572 648.555 231.777 648.756 232.023C648.96 232.265 649.116 232.504 649.222 232.739H649.295V228.364H651.71V240H649.324V238.602H649.222C649.108 238.845 648.947 239.085 648.739 239.324C648.534 239.559 648.267 239.754 647.938 239.909C647.612 240.064 647.214 240.142 646.744 240.142ZM647.511 238.216C647.902 238.216 648.231 238.11 648.5 237.898C648.773 237.682 648.981 237.381 649.125 236.994C649.273 236.608 649.347 236.155 649.347 235.636C649.347 235.117 649.275 234.667 649.131 234.284C648.987 233.902 648.778 233.606 648.506 233.398C648.233 233.189 647.902 233.085 647.511 233.085C647.114 233.085 646.778 233.193 646.506 233.409C646.233 233.625 646.027 233.924 645.886 234.307C645.746 234.689 645.676 235.133 645.676 235.636C645.676 236.144 645.746 236.593 645.886 236.983C646.03 237.369 646.237 237.672 646.506 237.892C646.778 238.108 647.114 238.216 647.511 238.216ZM661.837 231.273L658.786 240H656.058L653.007 231.273H655.564L657.376 237.517H657.467L659.274 231.273H661.837ZM666.737 240.17C665.855 240.17 665.091 239.983 664.447 239.608C663.807 239.229 663.313 238.703 662.964 238.028C662.616 237.35 662.442 236.564 662.442 235.67C662.442 234.769 662.616 233.981 662.964 233.307C663.313 232.629 663.807 232.102 664.447 231.727C665.091 231.348 665.855 231.159 666.737 231.159C667.62 231.159 668.381 231.348 669.021 231.727C669.665 232.102 670.161 232.629 670.51 233.307C670.858 233.981 671.033 234.769 671.033 235.67C671.033 236.564 670.858 237.35 670.51 238.028C670.161 238.703 669.665 239.229 669.021 239.608C668.381 239.983 667.62 240.17 666.737 240.17ZM666.749 238.295C667.15 238.295 667.485 238.182 667.754 237.955C668.023 237.723 668.226 237.409 668.362 237.011C668.502 236.614 668.572 236.161 668.572 235.653C668.572 235.146 668.502 234.693 668.362 234.295C668.226 233.898 668.023 233.583 667.754 233.352C667.485 233.121 667.15 233.006 666.749 233.006C666.343 233.006 666.002 233.121 665.726 233.352C665.453 233.583 665.247 233.898 665.107 234.295C664.97 234.693 664.902 235.146 664.902 235.653C664.902 236.161 664.97 236.614 665.107 237.011C665.247 237.409 665.453 237.723 665.726 237.955C666.002 238.182 666.343 238.295 666.749 238.295ZM676.55 240.17C675.656 240.17 674.887 239.981 674.243 239.602C673.603 239.22 673.11 238.689 672.766 238.011C672.425 237.333 672.254 236.553 672.254 235.67C672.254 234.777 672.427 233.992 672.771 233.318C673.12 232.64 673.614 232.112 674.254 231.733C674.894 231.35 675.656 231.159 676.538 231.159C677.3 231.159 677.966 231.297 678.538 231.574C679.11 231.85 679.563 232.239 679.896 232.739C680.23 233.239 680.413 233.826 680.447 234.5H678.163C678.099 234.064 677.929 233.714 677.652 233.449C677.379 233.18 677.021 233.045 676.578 233.045C676.203 233.045 675.875 233.148 675.595 233.352C675.319 233.553 675.103 233.847 674.947 234.233C674.792 234.619 674.714 235.087 674.714 235.636C674.714 236.193 674.79 236.667 674.942 237.057C675.097 237.447 675.315 237.744 675.595 237.949C675.875 238.153 676.203 238.256 676.578 238.256C676.855 238.256 677.103 238.199 677.322 238.085C677.546 237.972 677.73 237.807 677.874 237.591C678.021 237.371 678.118 237.108 678.163 236.801H680.447C680.41 237.468 680.228 238.055 679.902 238.562C679.58 239.066 679.135 239.46 678.567 239.744C677.999 240.028 677.326 240.17 676.55 240.17ZM684.486 240.165C683.929 240.165 683.433 240.068 682.997 239.875C682.562 239.678 682.217 239.388 681.963 239.006C681.713 238.619 681.588 238.138 681.588 237.562C681.588 237.078 681.677 236.67 681.855 236.341C682.033 236.011 682.276 235.746 682.582 235.545C682.889 235.345 683.238 235.193 683.628 235.091C684.022 234.989 684.435 234.917 684.866 234.875C685.374 234.822 685.783 234.773 686.094 234.727C686.404 234.678 686.63 234.606 686.77 234.511C686.91 234.417 686.98 234.277 686.98 234.091V234.057C686.98 233.697 686.866 233.419 686.639 233.222C686.416 233.025 686.098 232.926 685.685 232.926C685.249 232.926 684.902 233.023 684.645 233.216C684.387 233.405 684.217 233.644 684.134 233.932L681.895 233.75C682.009 233.22 682.232 232.761 682.565 232.375C682.899 231.985 683.329 231.686 683.855 231.477C684.385 231.265 684.999 231.159 685.696 231.159C686.181 231.159 686.645 231.216 687.088 231.33C687.535 231.443 687.931 231.619 688.276 231.858C688.624 232.097 688.899 232.403 689.099 232.778C689.3 233.15 689.401 233.595 689.401 234.114V240H687.105V238.79H687.037C686.897 239.062 686.709 239.303 686.474 239.511C686.24 239.716 685.957 239.877 685.628 239.994C685.298 240.108 684.918 240.165 684.486 240.165ZM685.179 238.494C685.535 238.494 685.849 238.424 686.122 238.284C686.395 238.14 686.609 237.947 686.764 237.705C686.92 237.462 686.997 237.187 686.997 236.881V235.955C686.921 236.004 686.817 236.049 686.685 236.091C686.556 236.129 686.41 236.165 686.247 236.199C686.084 236.229 685.921 236.258 685.759 236.284C685.596 236.307 685.448 236.328 685.315 236.347C685.031 236.388 684.783 236.455 684.571 236.545C684.359 236.636 684.194 236.759 684.077 236.915C683.959 237.066 683.901 237.256 683.901 237.483C683.901 237.812 684.02 238.064 684.259 238.239C684.501 238.409 684.808 238.494 685.179 238.494ZM695.222 240.17C694.328 240.17 693.559 239.981 692.915 239.602C692.275 239.22 691.782 238.689 691.438 238.011C691.097 237.333 690.926 236.553 690.926 235.67C690.926 234.777 691.098 233.992 691.443 233.318C691.792 232.64 692.286 232.112 692.926 231.733C693.566 231.35 694.328 231.159 695.21 231.159C695.972 231.159 696.638 231.297 697.21 231.574C697.782 231.85 698.235 232.239 698.568 232.739C698.902 233.239 699.085 233.826 699.119 234.5H696.835C696.771 234.064 696.6 233.714 696.324 233.449C696.051 233.18 695.693 233.045 695.25 233.045C694.875 233.045 694.547 233.148 694.267 233.352C693.991 233.553 693.775 233.847 693.619 234.233C693.464 234.619 693.386 235.087 693.386 235.636C693.386 236.193 693.462 236.667 693.614 237.057C693.769 237.447 693.987 237.744 694.267 237.949C694.547 238.153 694.875 238.256 695.25 238.256C695.527 238.256 695.775 238.199 695.994 238.085C696.218 237.972 696.402 237.807 696.545 237.591C696.693 237.371 696.79 237.108 696.835 236.801H699.119C699.081 237.468 698.9 238.055 698.574 238.562C698.252 239.066 697.807 239.46 697.239 239.744C696.67 240.028 695.998 240.17 695.222 240.17ZM702.163 243.273C701.857 243.273 701.569 243.248 701.3 243.199C701.035 243.153 700.815 243.095 700.641 243.023L701.186 241.216C701.47 241.303 701.726 241.35 701.953 241.358C702.184 241.366 702.383 241.313 702.55 241.199C702.72 241.085 702.858 240.892 702.964 240.619L703.107 240.25L699.976 231.273H702.521L704.328 237.682H704.419L706.243 231.273H708.805L705.413 240.943C705.25 241.413 705.029 241.822 704.749 242.17C704.472 242.523 704.122 242.794 703.697 242.983C703.273 243.176 702.762 243.273 702.163 243.273Z" fill="black"/>
</g>
</g>
<circle opacity="0.1" cx="705" cy="121" r="24" fill="black"/>
</g>
<defs>
<filter id="filter0_d_4_13" x="0" y="0" width="757" height="472" filterUnits="userSpaceOnUse" color-interpolation-filters="sRGB">
<feFlood flood-opacity="0" result="BackgroundImageFix"/>
<feColorMatrix in="SourceAlpha" type="matrix" values="0 0 0 0 0 0 0 0 0 0 0 0 0 0 0 0 0 0 127 0" result="hardAlpha"/>
<feOffset dy="4"/>
<feGaussianBlur stdDeviation="6"/>
<feComposite in2="hardAlpha" operator="out"/>
<feColorMatrix type="matrix" values="0 0 0 0 0 0 0 0 0 0 0 0 0 0 0 0 0 0 0.04 0"/>
<feBlend mode="normal" in2="BackgroundImageFix" result="effect1_dropShadow_4_13"/>
<feBlend mode="normal" in="SourceGraphic" in2="effect1_dropShadow_4_13" result="shape"/>
</filter>
<filter id="filter1_d_4_13" x="27" y="214" width="703" height="48" filterUnits="userSpaceOnUse" color-interpolation-filters="sRGB">
<feFlood flood-opacity="0" result="BackgroundImageFix"/>
<feColorMatrix in="SourceAlpha" type="matrix" values="0 0 0 0 0 0 0 0 0 0 0 0 0 0 0 0 0 0 127 0" result="hardAlpha"/>
<feOffset dy="4"/>
<feGaussianBlur stdDeviation="2"/>
<feComposite in2="hardAlpha" operator="out"/>
<feColorMatrix type="matrix" values="0 0 0 0 0 0 0 0 0 0 0 0 0 0 0 0 0 0 0.04 0"/>
<feBlend mode="normal" in2="BackgroundImageFix" result="effect1_dropShadow_4_13"/>
<feBlend mode="normal" in="SourceGraphic" in2="effect1_dropShadow_4_13" result="shape"/>
</filter>
<filter id="filter2_d_4_13" x="144" y="217" width="139" height="36" filterUnits="userSpaceOnUse" color-interpolation-filters="sRGB">
<feFlood flood-opacity="0" result="BackgroundImageFix"/>
<feColorMatrix in="SourceAlpha" type="matrix" values="0 0 0 0 0 0 0 0 0 0 0 0 0 0 0 0 0 0 127 0" result="hardAlpha"/>
<feOffset dy="1"/>
<feGaussianBlur stdDeviation="1"/>
<feComposite in2="hardAlpha" operator="out"/>
<feColorMatrix type="matrix" values="0 0 0 0 0 0 0 0 0 0 0 0 0 0 0 0 0 0 0.05 0"/>
<feBlend mode="normal" in2="BackgroundImageFix" result="effect1_dropShadow_4_13"/>
<feBlend mode="normal" in="SourceGraphic" in2="effect1_dropShadow_4_13" result="shape"/>
</filter>
<filter id="filter3_d_4_13" x="393" y="217" width="128" height="36" filterUnits="userSpaceOnUse" color-interpolation-filters="sRGB">
<feFlood flood-opacity="0" result="BackgroundImageFix"/>
<feColorMatrix in="SourceAlpha" type="matrix" values="0 0 0 0 0 0 0 0 0 0 0 0 0 0 0 0 0 0 127 0" result="hardAlpha"/>
<feOffset dy="1"/>
<feGaussianBlur stdDeviation="1"/>
<feComposite in2="hardAlpha" operator="out"/>
<feColorMatrix type="matrix" values="0 0 0 0 0 0 0 0 0 0 0 0 0 0 0 0 0 0 0.05 0"/>
<feBlend mode="normal" in2="BackgroundImageFix" result="effect1_dropShadow_4_13"/>
<feBlend mode="normal" in="SourceGraphic" in2="effect1_dropShadow_4_13" result="shape"/>
</filter>
<filter id="filter4_d_4_13" x="617" y="217" width="107" height="36" filterUnits="userSpaceOnUse" color-interpolation-filters="sRGB">
<feFlood flood-opacity="0" result="BackgroundImageFix"/>
<feColorMatrix in="SourceAlpha" type="matrix" values="0 0 0 0 0 0 0 0 0 0 0 0 0 0 0 0 0 0 127 0" result="hardAlpha"/>
<feOffset dy="1"/>
<feGaussianBlur stdDeviation="1"/>
<feComposite in2="hardAlpha" operator="out"/>
<feColorMatrix type="matrix" values="0 0 0 0 0 0 0 0 0 0 0 0 0 0 0 0 0 0 0.05 0"/>
<feBlend mode="normal" in2="BackgroundImageFix" result="effect1_dropShadow_4_13"/>
<feBlend mode="normal" in="SourceGraphic" in2="effect1_dropShadow_4_13" result="shape"/>
</filter>
</defs>
</svg>
