<svg width="757" height="472" viewBox="0 0 757 472" fill="none" xmlns="http://www.w3.org/2000/svg">
<g filter="url(#filter0_d_3_4)">
<rect x="12" y="8" width="733" height="448" rx="8" fill="white"/>
<rect x="12.5" y="8.5" width="732" height="447" rx="7.5" stroke="#E0E0E0"/>
<g filter="url(#filter1_d_3_4)">
<rect x="122" y="43" width="44" height="44" rx="8" fill="white"/>
<rect x="122.5" y="43.5" width="43" height="43" rx="7.5" stroke="#E0E0E0"/>
<path d="M149.833 58.3333H138.167C137.246 58.3333 136.5 58.9965 136.5 59.8147V70.1851C136.5 71.0033 137.246 71.6666 138.167 71.6666H149.833C150.754 71.6666 151.5 71.0033 151.5 70.1851V59.8147C151.5 58.9965 150.754 58.3333 149.833 58.3333Z" stroke="black" stroke-width="2" stroke-linecap="round" stroke-linejoin="round"/>
<path d="M136.5 61.6667L144 65.0001L151.5 61.6667" stroke="black" stroke-width="2" stroke-linecap="round" stroke-linejoin="round"/>
</g>
<g filter="url(#filter2_d_3_4)">
<rect x="230" y="43" width="44" height="44" rx="8" fill="#E0E0E0"/>
<rect x="230.5" y="43.5" width="43" height="43" rx="7.5" stroke="#E0E0E0"/>
<path d="M257.833 58.3333H246.167C245.246 58.3333 244.5 59.0794 244.5 59.9999V71.6666C244.5 72.5871 245.246 73.3333 246.167 73.3333H257.833C258.754 73.3333 259.5 72.5871 259.5 71.6666V59.9999C259.5 59.0794 258.754 58.3333 257.833 58.3333Z" stroke="black" stroke-width="2" stroke-linecap="round" stroke-linejoin="round"/>
<path d="M255.333 56.6667V60.0001" stroke="black" stroke-width="2" stroke-linecap="round" stroke-linejoin="round"/>
<path d="M248.667 56.6667V60.0001" stroke="black" stroke-width="2" stroke-linecap="round" stroke-linejoin="round"/>
<path d="M244.5 63.3333H259.5" stroke="black" stroke-width="2" stroke-linecap="round" stroke-linejoin="round"/>
</g>
<g filter="url(#filter3_d_3_4)">
<rect x="338" y="43" width="44" height="44" rx="8" fill="#E0E0E0"/>
<rect x="338.5" y="43.5" width="43" height="43" rx="7.5" stroke="#E0E0E0"/>
<path d="M358.833 68.5L364.708 62.625L363.542 61.4583L358.833 66.1667L356.458 63.7917L355.292 64.9583L358.833 68.5ZM354.167 72.5C353.708 72.5 353.316 72.3368 352.99 72.0104C352.663 71.684 352.5 71.2917 352.5 70.8333V59.1667C352.5 58.7083 352.663 58.316 352.99 57.9896C353.316 57.6632 353.708 57.5 354.167 57.5H365.833C366.292 57.5 366.684 57.6632 367.01 57.9896C367.337 58.316 367.5 58.7083 367.5 59.1667V70.8333C367.5 71.2917 367.337 71.684 367.01 72.0104C366.684 72.3368 366.292 72.5 365.833 72.5H354.167ZM354.167 70.8333H365.833V59.1667H354.167V70.8333Z" fill="#1D1B20"/>
</g>
<g filter="url(#filter4_d_3_4)">
<rect x="446" y="43" width="44" height="44" rx="8" fill="white"/>
<rect x="446.5" y="43.5" width="43" height="43" rx="7.5" stroke="#E0E0E0"/>
<path d="M473.833 58.3333H462.167C461.246 58.3333 460.5 58.9965 460.5 59.8147V70.1851C460.5 71.0033 461.246 71.6666 462.167 71.6666H473.833C474.754 71.6666 475.5 71.0033 475.5 70.1851V59.8147C475.5 58.9965 474.754 58.3333 473.833 58.3333Z" stroke="black" stroke-width="2" stroke-linecap="round" stroke-linejoin="round"/>
<path d="M460.5 61.6667L468 65.0001L475.5 61.6667" stroke="black" stroke-width="2" stroke-linecap="round" stroke-linejoin="round"/>
</g>
<g filter="url(#filter5_d_3_4)">
<rect x="554" y="43" width="44" height="44" rx="8" fill="#E0E0E0"/>
<rect x="554.5" y="43.5" width="43" height="43" rx="7.5" stroke="#E0E0E0"/>
<path d="M581.833 58.3333H570.167C569.246 58.3333 568.5 59.0794 568.5 59.9999V71.6666C568.5 72.5871 569.246 73.3333 570.167 73.3333H581.833C582.754 73.3333 583.5 72.5871 583.5 71.6666V59.9999C583.5 59.0794 582.754 58.3333 581.833 58.3333Z" stroke="black" stroke-width="2" stroke-linecap="round" stroke-linejoin="round"/>
<path d="M579.333 56.6667V60.0001" stroke="black" stroke-width="2" stroke-linecap="round" stroke-linejoin="round"/>
<path d="M572.667 56.6667V60.0001" stroke="black" stroke-width="2" stroke-linecap="round" stroke-linejoin="round"/>
<path d="M568.5 63.3333H583.5" stroke="black" stroke-width="2" stroke-linecap="round" stroke-linejoin="round"/>
</g>
<g filter="url(#filter6_d_3_4)">
<rect x="662" y="43" width="44" height="44" rx="8" fill="#E0E0E0"/>
<rect x="662.5" y="43.5" width="43" height="43" rx="7.5" stroke="#E0E0E0"/>
<path d="M681 69.1667L684 66.1667L687 69.1667L688.167 68.0001L685.167 65.0001L688.167 62.0001L687 60.8334L684 63.8334L681 60.8334L679.833 62.0001L682.833 65.0001L679.833 68.0001L681 69.1667ZM684 73.3334C682.847 73.3334 681.764 73.1147 680.75 72.6772C679.736 72.2397 678.854 71.6459 678.104 70.8959C677.354 70.1459 676.76 69.264 676.323 68.2501C675.885 67.2362 675.667 66.1529 675.667 65.0001C675.667 63.8473 675.885 62.764 676.323 61.7501C676.76 60.7362 677.354 59.8542 678.104 59.1042C678.854 58.3542 679.736 57.7605 680.75 57.323C681.764 56.8855 682.847 56.6667 684 56.6667C685.153 56.6667 686.236 56.8855 687.25 57.323C688.264 57.7605 689.146 58.3542 689.896 59.1042C690.646 59.8542 691.24 60.7362 691.677 61.7501C692.115 62.764 692.333 63.8473 692.333 65.0001C692.333 66.1529 692.115 67.2362 691.677 68.2501C691.24 69.264 690.646 70.1459 689.896 70.8959C689.146 71.6459 688.264 72.2397 687.25 72.6772C686.236 73.1147 685.153 73.3334 684 73.3334ZM684 71.6667C685.861 71.6667 687.438 71.0209 688.729 69.7292C690.021 68.4376 690.667 66.8612 690.667 65.0001C690.667 63.139 690.021 61.5626 688.729 60.2709C687.438 58.9792 685.861 58.3334 684 58.3334C682.139 58.3334 680.563 58.9792 679.271 60.2709C677.979 61.5626 677.333 63.139 677.333 65.0001C677.333 66.8612 677.979 68.4376 679.271 69.7292C680.563 71.0209 682.139 71.6667 684 71.6667Z" fill="#1D1B20"/>
</g>
<path d="M252 154V89" stroke="black" stroke-width="4" stroke-linecap="square"/>
<g filter="url(#filter7_d_3_4)">
<rect x="230" y="156" width="44" height="44" rx="8" fill="#E0E0E0"/>
<rect x="230.5" y="156.5" width="43" height="43" rx="7.5" stroke="#E0E0E0"/>
<path d="M249 182.167L252 179.167L255 182.167L256.167 181L253.167 178L256.167 175L255 173.833L252 176.833L249 173.833L247.833 175L250.833 178L247.833 181L249 182.167ZM252 186.333C250.847 186.333 249.764 186.115 248.75 185.677C247.736 185.24 246.854 184.646 246.104 183.896C245.354 183.146 244.76 182.264 244.323 181.25C243.885 180.236 243.667 179.153 243.667 178C243.667 176.847 243.885 175.764 244.323 174.75C244.76 173.736 245.354 172.854 246.104 172.104C246.854 171.354 247.736 170.76 248.75 170.323C249.764 169.885 250.847 169.667 252 169.667C253.153 169.667 254.236 169.885 255.25 170.323C256.264 170.76 257.146 171.354 257.896 172.104C258.646 172.854 259.24 173.736 259.677 174.75C260.115 175.764 260.333 176.847 260.333 178C260.333 179.153 260.115 180.236 259.677 181.25C259.24 182.264 258.646 183.146 257.896 183.896C257.146 184.646 256.264 185.24 255.25 185.677C254.236 186.115 253.153 186.333 252 186.333ZM252 184.667C253.861 184.667 255.438 184.021 256.729 182.729C258.021 181.438 258.667 179.861 258.667 178C258.667 176.139 258.021 174.563 256.729 173.271C255.438 171.979 253.861 171.333 252 171.333C250.139 171.333 248.563 171.979 247.271 173.271C245.979 174.563 245.333 176.139 245.333 178C245.333 179.861 245.979 181.438 247.271 182.729C248.563 184.021 250.139 184.667 252 184.667Z" fill="#1D1B20"/>
</g>
<g filter="url(#filter8_d_3_4)">
<rect x="338" y="156" width="44" height="44" rx="8" fill="white"/>
<rect x="338.5" y="156.5" width="43" height="43" rx="7.5" stroke="#E0E0E0"/>
<path d="M369.999 182.974V185.985C370.001 186.264 369.943 186.541 369.831 186.797C369.719 187.053 369.554 187.283 369.348 187.472C369.141 187.661 368.898 187.805 368.633 187.894C368.367 187.984 368.086 188.017 367.807 187.992C364.713 187.656 361.74 186.601 359.129 184.911C356.699 183.37 354.639 181.314 353.095 178.889C351.396 176.271 350.338 173.29 350.008 170.188C349.983 169.91 350.016 169.631 350.105 169.367C350.194 169.103 350.338 168.86 350.526 168.654C350.714 168.448 350.943 168.284 351.199 168.171C351.454 168.059 351.73 168 352.009 168H355.026C355.514 167.995 355.987 168.168 356.357 168.485C356.727 168.803 356.969 169.244 357.037 169.726C357.165 170.69 357.401 171.636 357.741 172.546C357.876 172.906 357.906 173.296 357.826 173.671C357.745 174.047 357.559 174.391 357.289 174.664L356.012 175.939C357.443 178.451 359.528 180.532 362.045 181.96L363.322 180.686C363.596 180.416 363.941 180.23 364.317 180.15C364.693 180.07 365.084 180.099 365.444 180.234C366.356 180.574 367.304 180.809 368.27 180.937C368.758 181.005 369.204 181.251 369.523 181.627C369.842 182.002 370.012 182.482 369.999 182.974Z" stroke="black" stroke-width="2" stroke-linecap="round" stroke-linejoin="round"/>
</g>
<g filter="url(#filter9_d_3_4)">
<rect x="446" y="156" width="44" height="44" rx="8" fill="white"/>
<rect x="446.5" y="156.5" width="43" height="43" rx="7.5" stroke="#E0E0E0"/>
<path d="M468.833 169.667H463C462.558 169.667 462.134 169.842 461.821 170.155C461.509 170.467 461.333 170.891 461.333 171.333V184.667C461.333 185.109 461.509 185.533 461.821 185.845C462.134 186.158 462.558 186.333 463 186.333H473C473.442 186.333 473.866 186.158 474.179 185.845C474.491 185.533 474.667 185.109 474.667 184.667V175.5M468.833 169.667L474.667 175.5M468.833 169.667V175.5H474.667" stroke="#1E1E1E" stroke-width="2" stroke-linecap="round" stroke-linejoin="round"/>
</g>
<g filter="url(#filter10_d_3_4)">
<rect x="554" y="156" width="44" height="44" rx="8" fill="#E0E0E0"/>
<rect x="554.5" y="156.5" width="43" height="43" rx="7.5" stroke="#E0E0E0"/>
<path d="M574.833 181.5L580.708 175.625L579.542 174.458L574.833 179.167L572.458 176.792L571.292 177.958L574.833 181.5ZM570.167 185.5C569.708 185.5 569.316 185.337 568.99 185.01C568.663 184.684 568.5 184.292 568.5 183.833V172.167C568.5 171.708 568.663 171.316 568.99 170.99C569.316 170.663 569.708 170.5 570.167 170.5H581.833C582.292 170.5 582.684 170.663 583.01 170.99C583.337 171.316 583.5 171.708 583.5 172.167V183.833C583.5 184.292 583.337 184.684 583.01 185.01C582.684 185.337 582.292 185.5 581.833 185.5H570.167ZM570.167 183.833H581.833V172.167H570.167V183.833Z" fill="#1D1B20"/>
</g>
<g filter="url(#filter11_d_3_4)">
<rect x="662" y="156" width="44" height="44" rx="8" fill="white"/>
<rect x="662.5" y="156.5" width="43" height="43" rx="7.5" stroke="#E0E0E0"/>
<path d="M689.833 171.333H678.167C677.246 171.333 676.5 171.997 676.5 172.815V183.185C676.5 184.003 677.246 184.667 678.167 184.667H689.833C690.754 184.667 691.5 184.003 691.5 183.185V172.815C691.5 171.997 690.754 171.333 689.833 171.333Z" stroke="black" stroke-width="2" stroke-linecap="round" stroke-linejoin="round"/>
<path d="M676.5 174.667L684 178L691.5 174.667" stroke="black" stroke-width="2" stroke-linecap="round" stroke-linejoin="round"/>
</g>
<circle opacity="0.1" cx="64" cy="232" r="24" fill="black"/>
<circle opacity="0.1" cx="64" cy="232" r="24" fill="black"/>
<g filter="url(#filter12_d_3_4)">
<rect x="122" y="211" width="44" height="42" rx="8" fill="#E0E0E0"/>
<rect x="122.5" y="211.5" width="43" height="41" rx="7.5" stroke="#E0E0E0"/>
<path d="M154 223H134L142 232.46V239L146 241V232.46L154 223Z" stroke="black" stroke-width="2" stroke-linecap="round" stroke-linejoin="round"/>
</g>
<circle cx="64" cy="232" r="12" fill="#D9D9D9"/>
<circle cx="64" cy="232" r="6" fill="black"/>
<circle cx="64" cy="232" r="6" fill="black"/>
<g filter="url(#filter13_d_3_4)">
<rect x="230" y="264" width="44" height="44" rx="8" fill="#E0E0E0"/>
<rect x="230.5" y="264.5" width="43" height="43" rx="7.5" stroke="#E0E0E0"/>
<path d="M249 290.167L252 287.167L255 290.167L256.167 289L253.167 286L256.167 283L255 281.833L252 284.833L249 281.833L247.833 283L250.833 286L247.833 289L249 290.167ZM252 294.333C250.847 294.333 249.764 294.115 248.75 293.677C247.736 293.24 246.854 292.646 246.104 291.896C245.354 291.146 244.76 290.264 244.323 289.25C243.885 288.236 243.667 287.153 243.667 286C243.667 284.847 243.885 283.764 244.323 282.75C244.76 281.736 245.354 280.854 246.104 280.104C246.854 279.354 247.736 278.76 248.75 278.323C249.764 277.885 250.847 277.667 252 277.667C253.153 277.667 254.236 277.885 255.25 278.323C256.264 278.76 257.146 279.354 257.896 280.104C258.646 280.854 259.24 281.736 259.677 282.75C260.115 283.764 260.333 284.847 260.333 286C260.333 287.153 260.115 288.236 259.677 289.25C259.24 290.264 258.646 291.146 257.896 291.896C257.146 292.646 256.264 293.24 255.25 293.677C254.236 294.115 253.153 294.333 252 294.333ZM252 292.667C253.861 292.667 255.438 292.021 256.729 290.729C258.021 289.438 258.667 287.861 258.667 286C258.667 284.139 258.021 282.563 256.729 281.271C255.438 279.979 253.861 279.333 252 279.333C250.139 279.333 248.563 279.979 247.271 281.271C245.979 282.563 245.333 284.139 245.333 286C245.333 287.861 245.979 289.438 247.271 290.729C248.563 292.021 250.139 292.667 252 292.667Z" fill="#1D1B20"/>
</g>
<g filter="url(#filter14_d_3_4)">
<rect x="338" y="264" width="44" height="44" rx="8" fill="white"/>
<rect x="338.5" y="264.5" width="43" height="43" rx="7.5" stroke="#E0E0E0"/>
<path d="M369.999 290.974V293.985C370.001 294.264 369.943 294.541 369.831 294.797C369.719 295.053 369.554 295.283 369.348 295.472C369.141 295.661 368.898 295.805 368.633 295.894C368.367 295.984 368.086 296.017 367.807 295.992C364.713 295.656 361.74 294.601 359.129 292.911C356.699 291.37 354.639 289.314 353.095 286.889C351.396 284.271 350.338 281.29 350.008 278.188C349.983 277.91 350.016 277.631 350.105 277.367C350.194 277.103 350.338 276.86 350.526 276.654C350.714 276.448 350.943 276.284 351.199 276.171C351.454 276.059 351.73 276 352.009 276H355.026C355.514 275.995 355.987 276.168 356.357 276.485C356.727 276.803 356.969 277.244 357.037 277.726C357.165 278.69 357.401 279.636 357.741 280.546C357.876 280.906 357.906 281.296 357.826 281.671C357.745 282.047 357.559 282.391 357.289 282.664L356.012 283.939C357.443 286.451 359.528 288.532 362.045 289.96L363.322 288.686C363.596 288.416 363.941 288.23 364.317 288.15C364.693 288.07 365.084 288.099 365.444 288.234C366.356 288.574 367.304 288.809 368.27 288.937C368.758 289.005 369.204 289.251 369.523 289.627C369.842 290.002 370.012 290.482 369.999 290.974Z" stroke="black" stroke-width="2" stroke-linecap="round" stroke-linejoin="round"/>
</g>
<g filter="url(#filter15_d_3_4)">
<rect x="446" y="264" width="44" height="44" rx="8" fill="white"/>
<rect x="446.5" y="264.5" width="43" height="43" rx="7.5" stroke="#E0E0E0"/>
<path d="M468.833 277.667H463C462.558 277.667 462.134 277.842 461.821 278.155C461.509 278.467 461.333 278.891 461.333 279.333V292.667C461.333 293.109 461.509 293.533 461.821 293.845C462.134 294.158 462.558 294.333 463 294.333H473C473.442 294.333 473.866 294.158 474.179 293.845C474.491 293.533 474.667 293.109 474.667 292.667V283.5M468.833 277.667L474.667 283.5M468.833 277.667V283.5H474.667" stroke="#1E1E1E" stroke-width="2" stroke-linecap="round" stroke-linejoin="round"/>
</g>
<g filter="url(#filter16_d_3_4)">
<rect x="554" y="264" width="44" height="44" rx="8" fill="#E0E0E0"/>
<rect x="554.5" y="264.5" width="43" height="43" rx="7.5" stroke="#E0E0E0"/>
<path d="M574.833 289.5L580.708 283.625L579.542 282.458L574.833 287.167L572.458 284.792L571.292 285.958L574.833 289.5ZM570.167 293.5C569.708 293.5 569.316 293.337 568.99 293.01C568.663 292.684 568.5 292.292 568.5 291.833V280.167C568.5 279.708 568.663 279.316 568.99 278.99C569.316 278.663 569.708 278.5 570.167 278.5H581.833C582.292 278.5 582.684 278.663 583.01 278.99C583.337 279.316 583.5 279.708 583.5 280.167V291.833C583.5 292.292 583.337 292.684 583.01 293.01C582.684 293.337 582.292 293.5 581.833 293.5H570.167ZM570.167 291.833H581.833V280.167H570.167V291.833Z" fill="#1D1B20"/>
</g>
<g filter="url(#filter17_d_3_4)">
<rect x="554" y="264" width="44" height="44" rx="8" fill="#E0E0E0"/>
<rect x="554.5" y="264.5" width="43" height="43" rx="7.5" stroke="#E0E0E0"/>
<path d="M574.833 289.5L580.708 283.625L579.542 282.458L574.833 287.167L572.458 284.792L571.292 285.958L574.833 289.5ZM570.167 293.5C569.708 293.5 569.316 293.337 568.99 293.01C568.663 292.684 568.5 292.292 568.5 291.833V280.167C568.5 279.708 568.663 279.316 568.99 278.99C569.316 278.663 569.708 278.5 570.167 278.5H581.833C582.292 278.5 582.684 278.663 583.01 278.99C583.337 279.316 583.5 279.708 583.5 280.167V291.833C583.5 292.292 583.337 292.684 583.01 293.01C582.684 293.337 582.292 293.5 581.833 293.5H570.167ZM570.167 291.833H581.833V280.167H570.167V291.833Z" fill="#1D1B20"/>
</g>
<g filter="url(#filter18_d_3_4)">
<rect x="662" y="264" width="44" height="44" rx="8" fill="white"/>
<rect x="662.5" y="264.5" width="43" height="43" rx="7.5" stroke="#E0E0E0"/>
<path d="M689.833 279.333H678.167C677.246 279.333 676.5 279.997 676.5 280.815V291.185C676.5 292.003 677.246 292.667 678.167 292.667H689.833C690.754 292.667 691.5 292.003 691.5 291.185V280.815C691.5 279.997 690.754 279.333 689.833 279.333Z" stroke="black" stroke-width="2" stroke-linecap="round" stroke-linejoin="round"/>
<path d="M676.5 282.667L684 286L691.5 282.667" stroke="black" stroke-width="2" stroke-linecap="round" stroke-linejoin="round"/>
</g>
<g filter="url(#filter19_d_3_4)">
<rect x="662" y="264" width="44" height="44" rx="8" fill="white"/>
<rect x="662.5" y="264.5" width="43" height="43" rx="7.5" stroke="#E0E0E0"/>
<path d="M689.833 279.333H678.167C677.246 279.333 676.5 279.997 676.5 280.815V291.185C676.5 292.003 677.246 292.667 678.167 292.667H689.833C690.754 292.667 691.5 292.003 691.5 291.185V280.815C691.5 279.997 690.754 279.333 689.833 279.333Z" stroke="black" stroke-width="2" stroke-linecap="round" stroke-linejoin="round"/>
<path d="M676.5 282.667L684 286L691.5 282.667" stroke="black" stroke-width="2" stroke-linecap="round" stroke-linejoin="round"/>
</g>
<g filter="url(#filter20_d_3_4)">
<rect x="122" y="377" width="44" height="44" rx="8" fill="white"/>
<rect x="122.5" y="377.5" width="43" height="43" rx="7.5" stroke="#E0E0E0"/>
<path d="M149.833 392.333H138.167C137.246 392.333 136.5 392.997 136.5 393.815V404.185C136.5 405.003 137.246 405.667 138.167 405.667H149.833C150.754 405.667 151.5 405.003 151.5 404.185V393.815C151.5 392.997 150.754 392.333 149.833 392.333Z" stroke="black" stroke-width="2" stroke-linecap="round" stroke-linejoin="round"/>
<path d="M136.5 395.667L144 399L151.5 395.667" stroke="black" stroke-width="2" stroke-linecap="round" stroke-linejoin="round"/>
</g>
<g filter="url(#filter21_d_3_4)">
<rect x="230" y="377" width="44" height="44" rx="8" fill="#E0E0E0"/>
<rect x="230.5" y="377.5" width="43" height="43" rx="7.5" stroke="#E0E0E0"/>
<path d="M257.833 392.333H246.167C245.246 392.333 244.5 393.079 244.5 394V405.667C244.5 406.587 245.246 407.333 246.167 407.333H257.833C258.754 407.333 259.5 406.587 259.5 405.667V394C259.5 393.079 258.754 392.333 257.833 392.333Z" stroke="black" stroke-width="2" stroke-linecap="round" stroke-linejoin="round"/>
<path d="M255.333 390.667V394" stroke="black" stroke-width="2" stroke-linecap="round" stroke-linejoin="round"/>
<path d="M248.667 390.667V394" stroke="black" stroke-width="2" stroke-linecap="round" stroke-linejoin="round"/>
<path d="M244.5 397.333H259.5" stroke="black" stroke-width="2" stroke-linecap="round" stroke-linejoin="round"/>
</g>
<g filter="url(#filter22_d_3_4)">
<rect x="338" y="377" width="44" height="44" rx="8" fill="#E0E0E0"/>
<rect x="338.5" y="377.5" width="43" height="43" rx="7.5" stroke="#E0E0E0"/>
<path d="M358.833 402.5L364.708 396.625L363.542 395.458L358.833 400.167L356.458 397.792L355.292 398.958L358.833 402.5ZM354.167 406.5C353.708 406.5 353.316 406.337 352.99 406.01C352.663 405.684 352.5 405.292 352.5 404.833V393.167C352.5 392.708 352.663 392.316 352.99 391.99C353.316 391.663 353.708 391.5 354.167 391.5H365.833C366.292 391.5 366.684 391.663 367.01 391.99C367.337 392.316 367.5 392.708 367.5 393.167V404.833C367.5 405.292 367.337 405.684 367.01 406.01C366.684 406.337 366.292 406.5 365.833 406.5H354.167ZM354.167 404.833H365.833V393.167H354.167V404.833Z" fill="#1D1B20"/>
</g>
<g filter="url(#filter23_d_3_4)">
<rect x="446" y="377" width="44" height="44" rx="8" fill="white"/>
<rect x="446.5" y="377.5" width="43" height="43" rx="7.5" stroke="#E0E0E0"/>
<path d="M473.833 392.333H462.167C461.246 392.333 460.5 392.997 460.5 393.815V404.185C460.5 405.003 461.246 405.667 462.167 405.667H473.833C474.754 405.667 475.5 405.003 475.5 404.185V393.815C475.5 392.997 474.754 392.333 473.833 392.333Z" stroke="black" stroke-width="2" stroke-linecap="round" stroke-linejoin="round"/>
<path d="M460.5 395.667L468 399L475.5 395.667" stroke="black" stroke-width="2" stroke-linecap="round" stroke-linejoin="round"/>
</g>
<g filter="url(#filter24_d_3_4)">
<rect x="554" y="377" width="44" height="44" rx="8" fill="#E0E0E0"/>
<rect x="554.5" y="377.5" width="43" height="43" rx="7.5" stroke="#E0E0E0"/>
<path d="M581.833 392.333H570.167C569.246 392.333 568.5 393.079 568.5 394V405.667C568.5 406.587 569.246 407.333 570.167 407.333H581.833C582.754 407.333 583.5 406.587 583.5 405.667V394C583.5 393.079 582.754 392.333 581.833 392.333Z" stroke="black" stroke-width="2" stroke-linecap="round" stroke-linejoin="round"/>
<path d="M579.333 390.667V394" stroke="black" stroke-width="2" stroke-linecap="round" stroke-linejoin="round"/>
<path d="M572.667 390.667V394" stroke="black" stroke-width="2" stroke-linecap="round" stroke-linejoin="round"/>
<path d="M568.5 397.333H583.5" stroke="black" stroke-width="2" stroke-linecap="round" stroke-linejoin="round"/>
</g>
<g filter="url(#filter25_d_3_4)">
<rect x="662" y="377" width="44" height="44" rx="8" fill="#E0E0E0"/>
<rect x="662.5" y="377.5" width="43" height="43" rx="7.5" stroke="#E0E0E0"/>
<path d="M681 403.167L684 400.167L687 403.167L688.167 402L685.167 399L688.167 396L687 394.833L684 397.833L681 394.833L679.833 396L682.833 399L679.833 402L681 403.167ZM684 407.333C682.847 407.333 681.764 407.115 680.75 406.677C679.736 406.24 678.854 405.646 678.104 404.896C677.354 404.146 676.76 403.264 676.323 402.25C675.885 401.236 675.667 400.153 675.667 399C675.667 397.847 675.885 396.764 676.323 395.75C676.76 394.736 677.354 393.854 678.104 393.104C678.854 392.354 679.736 391.76 680.75 391.323C681.764 390.885 682.847 390.667 684 390.667C685.153 390.667 686.236 390.885 687.25 391.323C688.264 391.76 689.146 392.354 689.896 393.104C690.646 393.854 691.24 394.736 691.677 395.75C692.115 396.764 692.333 397.847 692.333 399C692.333 400.153 692.115 401.236 691.677 402.25C691.24 403.264 690.646 404.146 689.896 404.896C689.146 405.646 688.264 406.24 687.25 406.677C686.236 407.115 685.153 407.333 684 407.333ZM684 405.667C685.861 405.667 687.438 405.021 688.729 403.729C690.021 402.438 690.667 400.861 690.667 399C690.667 397.139 690.021 395.563 688.729 394.271C687.438 392.979 685.861 392.333 684 392.333C682.139 392.333 680.563 392.979 679.271 394.271C677.979 395.563 677.333 397.139 677.333 399C677.333 400.861 677.979 402.438 679.271 403.729C680.563 405.021 682.139 405.667 684 405.667Z" fill="#1D1B20"/>
</g>
<path d="M384 63H444" stroke="black" stroke-width="4" stroke-linecap="square"/>
<path d="M492 63H552" stroke="black" stroke-width="4" stroke-linecap="square"/>
<path d="M600 63H660" stroke="black" stroke-width="4" stroke-linecap="square"/>
<path d="M168 64H228" stroke="black" stroke-width="4" stroke-linecap="square"/>
<path d="M276 64H336" stroke="black" stroke-width="4" stroke-linecap="square"/>
<path d="M144 209V89" stroke="black" stroke-width="4" stroke-linecap="square"/>
<path d="M575 154V89" stroke="black" stroke-width="4" stroke-linecap="square"/>
<path d="M490 176H550" stroke="black" stroke-width="4" stroke-linecap="square"/>
<path d="M600 176H660" stroke="black" stroke-width="4" stroke-linecap="square"/>
<path d="M276 177H336" stroke="black" stroke-width="4" stroke-linecap="square"/>
<path d="M384 177H444" stroke="black" stroke-width="4" stroke-linecap="square"/>
<path d="M60 230C58.8954 230 58 230.895 58 232C58 233.105 58.8954 234 60 234V230ZM120 234H122V230H120V234ZM60 232V234H120V232V230H60V232Z" fill="black"/>
<path d="M144 375V255" stroke="black" stroke-width="4" stroke-linecap="square"/>
<path d="M384 284H444" stroke="black" stroke-width="4" stroke-linecap="square"/>
<path d="M276 285H336" stroke="black" stroke-width="4" stroke-linecap="square"/>
<path d="M492 285H552" stroke="black" stroke-width="4" stroke-linecap="square"/>
<path d="M492 285H552" stroke="black" stroke-width="4" stroke-linecap="square"/>
<path d="M600 285H660" stroke="black" stroke-width="4" stroke-linecap="square"/>
<path d="M600 285H660" stroke="black" stroke-width="4" stroke-linecap="square"/>
<path d="M252 375V310" stroke="black" stroke-width="4" stroke-linecap="square"/>
<path d="M575 375V310" stroke="black" stroke-width="4" stroke-linecap="square"/>
<path d="M168 398H228" stroke="black" stroke-width="4" stroke-linecap="square"/>
<path d="M276 398H336" stroke="black" stroke-width="4" stroke-linecap="square"/>
<path d="M384 398H444" stroke="black" stroke-width="4" stroke-linecap="square"/>
<path d="M492 398H552" stroke="black" stroke-width="4" stroke-linecap="square"/>
<path d="M600 398H660" stroke="black" stroke-width="4" stroke-linecap="square"/>
</g>
<defs>
<filter id="filter0_d_3_4" x="0" y="0" width="757" height="472" filterUnits="userSpaceOnUse" color-interpolation-filters="sRGB">
<feFlood flood-opacity="0" result="BackgroundImageFix"/>
<feColorMatrix in="SourceAlpha" type="matrix" values="0 0 0 0 0 0 0 0 0 0 0 0 0 0 0 0 0 0 127 0" result="hardAlpha"/>
<feOffset dy="4"/>
<feGaussianBlur stdDeviation="6"/>
<feComposite in2="hardAlpha" operator="out"/>
<feColorMatrix type="matrix" values="0 0 0 0 0 0 0 0 0 0 0 0 0 0 0 0 0 0 0.04 0"/>
<feBlend mode="normal" in2="BackgroundImageFix" result="effect1_dropShadow_3_4"/>
<feBlend mode="normal" in="SourceGraphic" in2="effect1_dropShadow_3_4" result="shape"/>
</filter>
<filter id="filter1_d_3_4" x="110" y="35" width="68" height="68" filterUnits="userSpaceOnUse" color-interpolation-filters="sRGB">
<feFlood flood-opacity="0" result="BackgroundImageFix"/>
<feColorMatrix in="SourceAlpha" type="matrix" values="0 0 0 0 0 0 0 0 0 0 0 0 0 0 0 0 0 0 127 0" result="hardAlpha"/>
<feOffset dy="4"/>
<feGaussianBlur stdDeviation="6"/>
<feComposite in2="hardAlpha" operator="out"/>
<feColorMatrix type="matrix" values="0 0 0 0 0 0 0 0 0 0 0 0 0 0 0 0 0 0 0.04 0"/>
<feBlend mode="normal" in2="BackgroundImageFix" result="effect1_dropShadow_3_4"/>
<feBlend mode="normal" in="SourceGraphic" in2="effect1_dropShadow_3_4" result="shape"/>
</filter>
<filter id="filter2_d_3_4" x="218" y="35" width="68" height="68" filterUnits="userSpaceOnUse" color-interpolation-filters="sRGB">
<feFlood flood-opacity="0" result="BackgroundImageFix"/>
<feColorMatrix in="SourceAlpha" type="matrix" values="0 0 0 0 0 0 0 0 0 0 0 0 0 0 0 0 0 0 127 0" result="hardAlpha"/>
<feOffset dy="4"/>
<feGaussianBlur stdDeviation="6"/>
<feComposite in2="hardAlpha" operator="out"/>
<feColorMatrix type="matrix" values="0 0 0 0 0 0 0 0 0 0 0 0 0 0 0 0 0 0 0.04 0"/>
<feBlend mode="normal" in2="BackgroundImageFix" result="effect1_dropShadow_3_4"/>
<feBlend mode="normal" in="SourceGraphic" in2="effect1_dropShadow_3_4" result="shape"/>
</filter>
<filter id="filter3_d_3_4" x="326" y="35" width="68" height="68" filterUnits="userSpaceOnUse" color-interpolation-filters="sRGB">
<feFlood flood-opacity="0" result="BackgroundImageFix"/>
<feColorMatrix in="SourceAlpha" type="matrix" values="0 0 0 0 0 0 0 0 0 0 0 0 0 0 0 0 0 0 127 0" result="hardAlpha"/>
<feOffset dy="4"/>
<feGaussianBlur stdDeviation="6"/>
<feComposite in2="hardAlpha" operator="out"/>
<feColorMatrix type="matrix" values="0 0 0 0 0 0 0 0 0 0 0 0 0 0 0 0 0 0 0.04 0"/>
<feBlend mode="normal" in2="BackgroundImageFix" result="effect1_dropShadow_3_4"/>
<feBlend mode="normal" in="SourceGraphic" in2="effect1_dropShadow_3_4" result="shape"/>
</filter>
<filter id="filter4_d_3_4" x="434" y="35" width="68" height="68" filterUnits="userSpaceOnUse" color-interpolation-filters="sRGB">
<feFlood flood-opacity="0" result="BackgroundImageFix"/>
<feColorMatrix in="SourceAlpha" type="matrix" values="0 0 0 0 0 0 0 0 0 0 0 0 0 0 0 0 0 0 127 0" result="hardAlpha"/>
<feOffset dy="4"/>
<feGaussianBlur stdDeviation="6"/>
<feComposite in2="hardAlpha" operator="out"/>
<feColorMatrix type="matrix" values="0 0 0 0 0 0 0 0 0 0 0 0 0 0 0 0 0 0 0.04 0"/>
<feBlend mode="normal" in2="BackgroundImageFix" result="effect1_dropShadow_3_4"/>
<feBlend mode="normal" in="SourceGraphic" in2="effect1_dropShadow_3_4" result="shape"/>
</filter>
<filter id="filter5_d_3_4" x="542" y="35" width="68" height="68" filterUnits="userSpaceOnUse" color-interpolation-filters="sRGB">
<feFlood flood-opacity="0" result="BackgroundImageFix"/>
<feColorMatrix in="SourceAlpha" type="matrix" values="0 0 0 0 0 0 0 0 0 0 0 0 0 0 0 0 0 0 127 0" result="hardAlpha"/>
<feOffset dy="4"/>
<feGaussianBlur stdDeviation="6"/>
<feComposite in2="hardAlpha" operator="out"/>
<feColorMatrix type="matrix" values="0 0 0 0 0 0 0 0 0 0 0 0 0 0 0 0 0 0 0.04 0"/>
<feBlend mode="normal" in2="BackgroundImageFix" result="effect1_dropShadow_3_4"/>
<feBlend mode="normal" in="SourceGraphic" in2="effect1_dropShadow_3_4" result="shape"/>
</filter>
<filter id="filter6_d_3_4" x="650" y="35" width="68" height="68" filterUnits="userSpaceOnUse" color-interpolation-filters="sRGB">
<feFlood flood-opacity="0" result="BackgroundImageFix"/>
<feColorMatrix in="SourceAlpha" type="matrix" values="0 0 0 0 0 0 0 0 0 0 0 0 0 0 0 0 0 0 127 0" result="hardAlpha"/>
<feOffset dy="4"/>
<feGaussianBlur stdDeviation="6"/>
<feComposite in2="hardAlpha" operator="out"/>
<feColorMatrix type="matrix" values="0 0 0 0 0 0 0 0 0 0 0 0 0 0 0 0 0 0 0.04 0"/>
<feBlend mode="normal" in2="BackgroundImageFix" result="effect1_dropShadow_3_4"/>
<feBlend mode="normal" in="SourceGraphic" in2="effect1_dropShadow_3_4" result="shape"/>
</filter>
<filter id="filter7_d_3_4" x="218" y="148" width="68" height="68" filterUnits="userSpaceOnUse" color-interpolation-filters="sRGB">
<feFlood flood-opacity="0" result="BackgroundImageFix"/>
<feColorMatrix in="SourceAlpha" type="matrix" values="0 0 0 0 0 0 0 0 0 0 0 0 0 0 0 0 0 0 127 0" result="hardAlpha"/>
<feOffset dy="4"/>
<feGaussianBlur stdDeviation="6"/>
<feComposite in2="hardAlpha" operator="out"/>
<feColorMatrix type="matrix" values="0 0 0 0 0 0 0 0 0 0 0 0 0 0 0 0 0 0 0.04 0"/>
<feBlend mode="normal" in2="BackgroundImageFix" result="effect1_dropShadow_3_4"/>
<feBlend mode="normal" in="SourceGraphic" in2="effect1_dropShadow_3_4" result="shape"/>
</filter>
<filter id="filter8_d_3_4" x="326" y="148" width="68" height="68" filterUnits="userSpaceOnUse" color-interpolation-filters="sRGB">
<feFlood flood-opacity="0" result="BackgroundImageFix"/>
<feColorMatrix in="SourceAlpha" type="matrix" values="0 0 0 0 0 0 0 0 0 0 0 0 0 0 0 0 0 0 127 0" result="hardAlpha"/>
<feOffset dy="4"/>
<feGaussianBlur stdDeviation="6"/>
<feComposite in2="hardAlpha" operator="out"/>
<feColorMatrix type="matrix" values="0 0 0 0 0 0 0 0 0 0 0 0 0 0 0 0 0 0 0.04 0"/>
<feBlend mode="normal" in2="BackgroundImageFix" result="effect1_dropShadow_3_4"/>
<feBlend mode="normal" in="SourceGraphic" in2="effect1_dropShadow_3_4" result="shape"/>
</filter>
<filter id="filter9_d_3_4" x="434" y="148" width="68" height="68" filterUnits="userSpaceOnUse" color-interpolation-filters="sRGB">
<feFlood flood-opacity="0" result="BackgroundImageFix"/>
<feColorMatrix in="SourceAlpha" type="matrix" values="0 0 0 0 0 0 0 0 0 0 0 0 0 0 0 0 0 0 127 0" result="hardAlpha"/>
<feOffset dy="4"/>
<feGaussianBlur stdDeviation="6"/>
<feComposite in2="hardAlpha" operator="out"/>
<feColorMatrix type="matrix" values="0 0 0 0 0 0 0 0 0 0 0 0 0 0 0 0 0 0 0.04 0"/>
<feBlend mode="normal" in2="BackgroundImageFix" result="effect1_dropShadow_3_4"/>
<feBlend mode="normal" in="SourceGraphic" in2="effect1_dropShadow_3_4" result="shape"/>
</filter>
<filter id="filter10_d_3_4" x="542" y="148" width="68" height="68" filterUnits="userSpaceOnUse" color-interpolation-filters="sRGB">
<feFlood flood-opacity="0" result="BackgroundImageFix"/>
<feColorMatrix in="SourceAlpha" type="matrix" values="0 0 0 0 0 0 0 0 0 0 0 0 0 0 0 0 0 0 127 0" result="hardAlpha"/>
<feOffset dy="4"/>
<feGaussianBlur stdDeviation="6"/>
<feComposite in2="hardAlpha" operator="out"/>
<feColorMatrix type="matrix" values="0 0 0 0 0 0 0 0 0 0 0 0 0 0 0 0 0 0 0.04 0"/>
<feBlend mode="normal" in2="BackgroundImageFix" result="effect1_dropShadow_3_4"/>
<feBlend mode="normal" in="SourceGraphic" in2="effect1_dropShadow_3_4" result="shape"/>
</filter>
<filter id="filter11_d_3_4" x="650" y="148" width="68" height="68" filterUnits="userSpaceOnUse" color-interpolation-filters="sRGB">
<feFlood flood-opacity="0" result="BackgroundImageFix"/>
<feColorMatrix in="SourceAlpha" type="matrix" values="0 0 0 0 0 0 0 0 0 0 0 0 0 0 0 0 0 0 127 0" result="hardAlpha"/>
<feOffset dy="4"/>
<feGaussianBlur stdDeviation="6"/>
<feComposite in2="hardAlpha" operator="out"/>
<feColorMatrix type="matrix" values="0 0 0 0 0 0 0 0 0 0 0 0 0 0 0 0 0 0 0.04 0"/>
<feBlend mode="normal" in2="BackgroundImageFix" result="effect1_dropShadow_3_4"/>
<feBlend mode="normal" in="SourceGraphic" in2="effect1_dropShadow_3_4" result="shape"/>
</filter>
<filter id="filter12_d_3_4" x="110" y="203" width="68" height="66" filterUnits="userSpaceOnUse" color-interpolation-filters="sRGB">
<feFlood flood-opacity="0" result="BackgroundImageFix"/>
<feColorMatrix in="SourceAlpha" type="matrix" values="0 0 0 0 0 0 0 0 0 0 0 0 0 0 0 0 0 0 127 0" result="hardAlpha"/>
<feOffset dy="4"/>
<feGaussianBlur stdDeviation="6"/>
<feComposite in2="hardAlpha" operator="out"/>
<feColorMatrix type="matrix" values="0 0 0 0 0 0 0 0 0 0 0 0 0 0 0 0 0 0 0.04 0"/>
<feBlend mode="normal" in2="BackgroundImageFix" result="effect1_dropShadow_3_4"/>
<feBlend mode="normal" in="SourceGraphic" in2="effect1_dropShadow_3_4" result="shape"/>
</filter>
<filter id="filter13_d_3_4" x="218" y="256" width="68" height="68" filterUnits="userSpaceOnUse" color-interpolation-filters="sRGB">
<feFlood flood-opacity="0" result="BackgroundImageFix"/>
<feColorMatrix in="SourceAlpha" type="matrix" values="0 0 0 0 0 0 0 0 0 0 0 0 0 0 0 0 0 0 127 0" result="hardAlpha"/>
<feOffset dy="4"/>
<feGaussianBlur stdDeviation="6"/>
<feComposite in2="hardAlpha" operator="out"/>
<feColorMatrix type="matrix" values="0 0 0 0 0 0 0 0 0 0 0 0 0 0 0 0 0 0 0.04 0"/>
<feBlend mode="normal" in2="BackgroundImageFix" result="effect1_dropShadow_3_4"/>
<feBlend mode="normal" in="SourceGraphic" in2="effect1_dropShadow_3_4" result="shape"/>
</filter>
<filter id="filter14_d_3_4" x="326" y="256" width="68" height="68" filterUnits="userSpaceOnUse" color-interpolation-filters="sRGB">
<feFlood flood-opacity="0" result="BackgroundImageFix"/>
<feColorMatrix in="SourceAlpha" type="matrix" values="0 0 0 0 0 0 0 0 0 0 0 0 0 0 0 0 0 0 127 0" result="hardAlpha"/>
<feOffset dy="4"/>
<feGaussianBlur stdDeviation="6"/>
<feComposite in2="hardAlpha" operator="out"/>
<feColorMatrix type="matrix" values="0 0 0 0 0 0 0 0 0 0 0 0 0 0 0 0 0 0 0.04 0"/>
<feBlend mode="normal" in2="BackgroundImageFix" result="effect1_dropShadow_3_4"/>
<feBlend mode="normal" in="SourceGraphic" in2="effect1_dropShadow_3_4" result="shape"/>
</filter>
<filter id="filter15_d_3_4" x="434" y="256" width="68" height="68" filterUnits="userSpaceOnUse" color-interpolation-filters="sRGB">
<feFlood flood-opacity="0" result="BackgroundImageFix"/>
<feColorMatrix in="SourceAlpha" type="matrix" values="0 0 0 0 0 0 0 0 0 0 0 0 0 0 0 0 0 0 127 0" result="hardAlpha"/>
<feOffset dy="4"/>
<feGaussianBlur stdDeviation="6"/>
<feComposite in2="hardAlpha" operator="out"/>
<feColorMatrix type="matrix" values="0 0 0 0 0 0 0 0 0 0 0 0 0 0 0 0 0 0 0.04 0"/>
<feBlend mode="normal" in2="BackgroundImageFix" result="effect1_dropShadow_3_4"/>
<feBlend mode="normal" in="SourceGraphic" in2="effect1_dropShadow_3_4" result="shape"/>
</filter>
<filter id="filter16_d_3_4" x="542" y="256" width="68" height="68" filterUnits="userSpaceOnUse" color-interpolation-filters="sRGB">
<feFlood flood-opacity="0" result="BackgroundImageFix"/>
<feColorMatrix in="SourceAlpha" type="matrix" values="0 0 0 0 0 0 0 0 0 0 0 0 0 0 0 0 0 0 127 0" result="hardAlpha"/>
<feOffset dy="4"/>
<feGaussianBlur stdDeviation="6"/>
<feComposite in2="hardAlpha" operator="out"/>
<feColorMatrix type="matrix" values="0 0 0 0 0 0 0 0 0 0 0 0 0 0 0 0 0 0 0.04 0"/>
<feBlend mode="normal" in2="BackgroundImageFix" result="effect1_dropShadow_3_4"/>
<feBlend mode="normal" in="SourceGraphic" in2="effect1_dropShadow_3_4" result="shape"/>
</filter>
<filter id="filter17_d_3_4" x="542" y="256" width="68" height="68" filterUnits="userSpaceOnUse" color-interpolation-filters="sRGB">
<feFlood flood-opacity="0" result="BackgroundImageFix"/>
<feColorMatrix in="SourceAlpha" type="matrix" values="0 0 0 0 0 0 0 0 0 0 0 0 0 0 0 0 0 0 127 0" result="hardAlpha"/>
<feOffset dy="4"/>
<feGaussianBlur stdDeviation="6"/>
<feComposite in2="hardAlpha" operator="out"/>
<feColorMatrix type="matrix" values="0 0 0 0 0 0 0 0 0 0 0 0 0 0 0 0 0 0 0.04 0"/>
<feBlend mode="normal" in2="BackgroundImageFix" result="effect1_dropShadow_3_4"/>
<feBlend mode="normal" in="SourceGraphic" in2="effect1_dropShadow_3_4" result="shape"/>
</filter>
<filter id="filter18_d_3_4" x="650" y="256" width="68" height="68" filterUnits="userSpaceOnUse" color-interpolation-filters="sRGB">
<feFlood flood-opacity="0" result="BackgroundImageFix"/>
<feColorMatrix in="SourceAlpha" type="matrix" values="0 0 0 0 0 0 0 0 0 0 0 0 0 0 0 0 0 0 127 0" result="hardAlpha"/>
<feOffset dy="4"/>
<feGaussianBlur stdDeviation="6"/>
<feComposite in2="hardAlpha" operator="out"/>
<feColorMatrix type="matrix" values="0 0 0 0 0 0 0 0 0 0 0 0 0 0 0 0 0 0 0.04 0"/>
<feBlend mode="normal" in2="BackgroundImageFix" result="effect1_dropShadow_3_4"/>
<feBlend mode="normal" in="SourceGraphic" in2="effect1_dropShadow_3_4" result="shape"/>
</filter>
<filter id="filter19_d_3_4" x="650" y="256" width="68" height="68" filterUnits="userSpaceOnUse" color-interpolation-filters="sRGB">
<feFlood flood-opacity="0" result="BackgroundImageFix"/>
<feColorMatrix in="SourceAlpha" type="matrix" values="0 0 0 0 0 0 0 0 0 0 0 0 0 0 0 0 0 0 127 0" result="hardAlpha"/>
<feOffset dy="4"/>
<feGaussianBlur stdDeviation="6"/>
<feComposite in2="hardAlpha" operator="out"/>
<feColorMatrix type="matrix" values="0 0 0 0 0 0 0 0 0 0 0 0 0 0 0 0 0 0 0.04 0"/>
<feBlend mode="normal" in2="BackgroundImageFix" result="effect1_dropShadow_3_4"/>
<feBlend mode="normal" in="SourceGraphic" in2="effect1_dropShadow_3_4" result="shape"/>
</filter>
<filter id="filter20_d_3_4" x="110" y="369" width="68" height="68" filterUnits="userSpaceOnUse" color-interpolation-filters="sRGB">
<feFlood flood-opacity="0" result="BackgroundImageFix"/>
<feColorMatrix in="SourceAlpha" type="matrix" values="0 0 0 0 0 0 0 0 0 0 0 0 0 0 0 0 0 0 127 0" result="hardAlpha"/>
<feOffset dy="4"/>
<feGaussianBlur stdDeviation="6"/>
<feComposite in2="hardAlpha" operator="out"/>
<feColorMatrix type="matrix" values="0 0 0 0 0 0 0 0 0 0 0 0 0 0 0 0 0 0 0.04 0"/>
<feBlend mode="normal" in2="BackgroundImageFix" result="effect1_dropShadow_3_4"/>
<feBlend mode="normal" in="SourceGraphic" in2="effect1_dropShadow_3_4" result="shape"/>
</filter>
<filter id="filter21_d_3_4" x="218" y="369" width="68" height="68" filterUnits="userSpaceOnUse" color-interpolation-filters="sRGB">
<feFlood flood-opacity="0" result="BackgroundImageFix"/>
<feColorMatrix in="SourceAlpha" type="matrix" values="0 0 0 0 0 0 0 0 0 0 0 0 0 0 0 0 0 0 127 0" result="hardAlpha"/>
<feOffset dy="4"/>
<feGaussianBlur stdDeviation="6"/>
<feComposite in2="hardAlpha" operator="out"/>
<feColorMatrix type="matrix" values="0 0 0 0 0 0 0 0 0 0 0 0 0 0 0 0 0 0 0.04 0"/>
<feBlend mode="normal" in2="BackgroundImageFix" result="effect1_dropShadow_3_4"/>
<feBlend mode="normal" in="SourceGraphic" in2="effect1_dropShadow_3_4" result="shape"/>
</filter>
<filter id="filter22_d_3_4" x="326" y="369" width="68" height="68" filterUnits="userSpaceOnUse" color-interpolation-filters="sRGB">
<feFlood flood-opacity="0" result="BackgroundImageFix"/>
<feColorMatrix in="SourceAlpha" type="matrix" values="0 0 0 0 0 0 0 0 0 0 0 0 0 0 0 0 0 0 127 0" result="hardAlpha"/>
<feOffset dy="4"/>
<feGaussianBlur stdDeviation="6"/>
<feComposite in2="hardAlpha" operator="out"/>
<feColorMatrix type="matrix" values="0 0 0 0 0 0 0 0 0 0 0 0 0 0 0 0 0 0 0.04 0"/>
<feBlend mode="normal" in2="BackgroundImageFix" result="effect1_dropShadow_3_4"/>
<feBlend mode="normal" in="SourceGraphic" in2="effect1_dropShadow_3_4" result="shape"/>
</filter>
<filter id="filter23_d_3_4" x="434" y="369" width="68" height="68" filterUnits="userSpaceOnUse" color-interpolation-filters="sRGB">
<feFlood flood-opacity="0" result="BackgroundImageFix"/>
<feColorMatrix in="SourceAlpha" type="matrix" values="0 0 0 0 0 0 0 0 0 0 0 0 0 0 0 0 0 0 127 0" result="hardAlpha"/>
<feOffset dy="4"/>
<feGaussianBlur stdDeviation="6"/>
<feComposite in2="hardAlpha" operator="out"/>
<feColorMatrix type="matrix" values="0 0 0 0 0 0 0 0 0 0 0 0 0 0 0 0 0 0 0.04 0"/>
<feBlend mode="normal" in2="BackgroundImageFix" result="effect1_dropShadow_3_4"/>
<feBlend mode="normal" in="SourceGraphic" in2="effect1_dropShadow_3_4" result="shape"/>
</filter>
<filter id="filter24_d_3_4" x="542" y="369" width="68" height="68" filterUnits="userSpaceOnUse" color-interpolation-filters="sRGB">
<feFlood flood-opacity="0" result="BackgroundImageFix"/>
<feColorMatrix in="SourceAlpha" type="matrix" values="0 0 0 0 0 0 0 0 0 0 0 0 0 0 0 0 0 0 127 0" result="hardAlpha"/>
<feOffset dy="4"/>
<feGaussianBlur stdDeviation="6"/>
<feComposite in2="hardAlpha" operator="out"/>
<feColorMatrix type="matrix" values="0 0 0 0 0 0 0 0 0 0 0 0 0 0 0 0 0 0 0.04 0"/>
<feBlend mode="normal" in2="BackgroundImageFix" result="effect1_dropShadow_3_4"/>
<feBlend mode="normal" in="SourceGraphic" in2="effect1_dropShadow_3_4" result="shape"/>
</filter>
<filter id="filter25_d_3_4" x="650" y="369" width="68" height="68" filterUnits="userSpaceOnUse" color-interpolation-filters="sRGB">
<feFlood flood-opacity="0" result="BackgroundImageFix"/>
<feColorMatrix in="SourceAlpha" type="matrix" values="0 0 0 0 0 0 0 0 0 0 0 0 0 0 0 0 0 0 127 0" result="hardAlpha"/>
<feOffset dy="4"/>
<feGaussianBlur stdDeviation="6"/>
<feComposite in2="hardAlpha" operator="out"/>
<feColorMatrix type="matrix" values="0 0 0 0 0 0 0 0 0 0 0 0 0 0 0 0 0 0 0.04 0"/>
<feBlend mode="normal" in2="BackgroundImageFix" result="effect1_dropShadow_3_4"/>
<feBlend mode="normal" in="SourceGraphic" in2="effect1_dropShadow_3_4" result="shape"/>
</filter>
</defs>
</svg>
